<svg width="24" height="21" viewBox="0 0 24 21" fill="none" xmlns="http://www.w3.org/2000/svg">
<path d="M7.55016 20.25C16.6045 20.25 21.5583 12.7468 21.5583 6.24192C21.5583 6.03098 21.5536 5.81536 21.5442 5.60442C22.5079 4.90752 23.3395 4.04432 24 3.05536C23.1025 3.45466 22.1496 3.71544 21.1739 3.8288C22.2013 3.21297 22.9705 2.24553 23.3391 1.10583C22.3726 1.67862 21.3156 2.08267 20.2134 2.30067C19.4708 1.51162 18.489 0.989177 17.4197 0.814112C16.3504 0.639047 15.2532 0.821111 14.2977 1.33216C13.3423 1.8432 12.5818 2.65477 12.1338 3.64137C11.6859 4.62798 11.5754 5.73468 11.8195 6.79036C9.86249 6.69215 7.94794 6.18377 6.19998 5.29816C4.45203 4.41255 2.90969 3.1695 1.67297 1.64958C1.0444 2.7333 0.852057 4.01571 1.13503 5.23615C1.418 6.4566 2.15506 7.52351 3.19641 8.22005C2.41463 8.19523 1.64998 7.98474 0.965625 7.60598V7.66692C0.964925 8.80421 1.3581 9.90665 2.07831 10.7868C2.79852 11.667 3.80132 12.2706 4.91625 12.495C4.19206 12.6932 3.43198 12.7221 2.69484 12.5794C3.00945 13.5575 3.62157 14.413 4.44577 15.0264C5.26997 15.6398 6.26512 15.9807 7.29234 16.0013C5.54842 17.3712 3.39417 18.1142 1.17656 18.1107C0.783287 18.1101 0.390399 18.086 0 18.0385C2.25286 19.4838 4.87353 20.2514 7.55016 20.25Z" fill="#1A1941"/>
</svg>
