<svg width="14" height="16" viewBox="0 0 14 16" fill="none" xmlns="http://www.w3.org/2000/svg">
<path d="M7.5409 3.10172L6.44142 3.09962C3.93346 3.09402 1.75625 4.99592 1.739 7.29962V9.95262C1.739 10.5056 1.664 11.0453 1.34076 11.5052L1.12551 11.8118C0.797769 12.2766 1.15026 12.8996 1.739 12.8996H4.7502H9.25012H12.2613C12.8501 12.8996 13.2018 12.2766 12.8748 11.8118L12.6596 11.5052C12.3371 11.0453 12.2613 10.5049 12.2613 9.95192V7.30032C12.2313 4.99592 10.0489 3.10732 7.5409 3.10172Z" fill="#1A1941"/>
<path d="M9.25012 12.8996H4.7502C4.7502 13.4566 4.98725 13.9907 5.4092 14.3845C5.83115 14.7784 6.40343 14.9996 7.00016 14.9996C7.59689 14.9996 8.16917 14.7784 8.59112 14.3845C9.01307 13.9907 9.25012 13.4566 9.25012 12.8996Z" fill="#1A1941"/>
<path d="M1.739 12.8996C1.15026 12.8996 0.797769 12.2766 1.12551 11.8118L1.34076 11.5052C1.664 11.0453 1.739 10.5056 1.739 9.95262V7.29962C1.75625 4.99592 3.93346 3.09402 6.44142 3.09962L7.5409 3.10172C10.0489 3.10732 12.2313 4.99592 12.2613 7.30032V9.95192C12.2613 10.5049 12.3371 11.0453 12.6596 11.5052L12.8748 11.8118C13.2018 12.2766 12.8501 12.8996 12.2613 12.8996M1.739 12.8996H12.2613M1.739 12.8996H4.7502M12.2613 12.8996H9.25012M9.25012 12.8996C9.25012 13.4566 9.01307 13.9907 8.59112 14.3845C8.16917 14.7784 7.59689 14.9996 7.00016 14.9996C6.40343 14.9996 5.83115 14.7784 5.4092 14.3845C4.98725 13.9907 4.7502 13.4566 4.7502 12.8996M9.25012 12.8996H4.7502" stroke="#1A1941" stroke-width="1.5" stroke-linecap="round" stroke-linejoin="round"/>
<path d="M6.99997 1C7.39779 1 7.77932 1.1475 8.06062 1.41005C8.34191 1.6726 8.49995 2.0287 8.49995 2.4V3.1H5.5V2.4C5.5 2.0287 5.65803 1.6726 5.93933 1.41005C6.22063 1.1475 6.60216 1 6.99997 1Z" fill="#1A1941" stroke="#1A1941" stroke-width="1.5" stroke-linecap="round" stroke-linejoin="round"/>
</svg>
