<svg width="30" height="32" viewBox="0 0 30 32" fill="none" xmlns="http://www.w3.org/2000/svg">
<path d="M26.5953 3.77653H23.7422H23.3266C22.8203 3.77653 22.3891 4.20466 22.3891 4.71402V7.14527C22.3891 7.26715 22.3985 7.38902 22.386 7.5109C22.3985 7.42652 22.4078 7.34527 22.4203 7.2609C22.4172 7.2734 22.4141 7.2859 22.4078 7.2984L22.5016 7.0734C22.5641 6.97965 22.6391 6.90465 22.7328 6.84214L22.9578 6.7484C22.9453 6.75152 22.9328 6.75465 22.9203 6.7609C23.0047 6.7484 23.086 6.73902 23.1703 6.72652C22.861 6.75777 22.5359 6.72965 22.2266 6.72965H20.7672C20.6453 6.72965 20.5172 6.73902 20.3953 6.72652C20.4797 6.73902 20.5609 6.7484 20.6453 6.7609C20.6328 6.75777 20.6203 6.75465 20.6078 6.7484L20.8328 6.84214C20.9266 6.90465 21.0016 6.97964 21.0641 7.0734L21.1578 7.2984C21.1547 7.2859 21.1516 7.2734 21.1453 7.2609C21.1578 7.34527 21.1672 7.42652 21.1797 7.5109C21.1484 7.20152 21.1766 6.8765 21.1766 6.56712V5.06398V4.71711C21.1766 4.21086 20.7484 3.77962 20.2391 3.77962H16.6859H11.0578H9.75782C9.25157 3.77962 8.82034 4.20775 8.82034 4.71711V7.14836C8.82034 7.27024 8.82971 7.39211 8.81721 7.51399C8.82971 7.42961 8.83909 7.34836 8.85159 7.26399C8.84846 7.27649 8.84534 7.28899 8.83909 7.30149L8.93284 7.07649C8.99534 6.98274 9.07033 6.90774 9.16409 6.84524C9.23909 6.81399 9.31409 6.78273 9.38909 6.75149C9.37659 6.75461 9.36409 6.75774 9.35159 6.76399C9.43596 6.75149 9.51721 6.74211 9.60159 6.72961C9.29221 6.76086 8.96719 6.73274 8.65782 6.73274H7.19844C7.07657 6.73274 6.94844 6.74211 6.82657 6.72961C6.91095 6.74211 6.99219 6.75149 7.07657 6.76399C7.06407 6.76086 7.05157 6.75774 7.03907 6.75149C7.11407 6.78274 7.18907 6.81399 7.26407 6.84524C7.35782 6.90774 7.43282 6.98273 7.49532 7.07649L7.58907 7.30149C7.58595 7.28899 7.58282 7.27649 7.57657 7.26399C7.58907 7.34836 7.59845 7.42961 7.61095 7.51399C7.5797 7.20461 7.60782 6.87959 7.60782 6.57022V5.06707V4.7202C7.60782 4.21395 7.17969 3.78271 6.67033 3.78271H4.67971H3.59222C3.07035 3.78271 2.58285 3.86709 2.10473 4.07959C1.02662 4.56084 0.367249 5.70147 0.364106 6.86084V7.56707V11.0639V16.2452V21.692V26.0795C0.364106 26.7389 0.357856 27.3983 0.364106 28.0576C0.373481 29.4483 1.37033 30.7764 2.76725 31.0389C3.0985 31.1014 3.40473 31.1077 3.73599 31.1077H6.53599H11.2798H16.7735H21.9048H25.5516H26.4423C27.1235 31.1077 27.8016 30.9545 28.3579 30.5389C28.7079 30.2764 29.0079 29.9733 29.2298 29.5889C29.461 29.1889 29.5766 28.7639 29.6235 28.3076C29.636 28.1983 29.636 28.0889 29.636 27.9795V27.1514V23.4608V18.2389V12.8233V8.54832C29.636 7.97021 29.6423 7.39518 29.636 6.81706C29.6298 6.02329 29.3173 5.25455 28.7579 4.6858C28.1891 4.10455 27.3985 3.7858 26.5954 3.77643C26.1048 3.77018 25.636 4.21081 25.6579 4.71392C25.6798 5.22642 26.0704 5.64518 26.5954 5.6514C26.6829 5.6514 26.7673 5.65765 26.8548 5.66703C26.7704 5.65453 26.6891 5.64515 26.6048 5.63265C26.8016 5.65765 26.9891 5.71078 27.1704 5.78578L26.9454 5.69203C27.0579 5.74203 27.1673 5.79828 27.2704 5.86703C27.2985 5.88578 27.3266 5.90766 27.3548 5.92641C27.436 5.97328 27.1641 5.76391 27.2766 5.86703C27.3235 5.90766 27.3673 5.94828 27.411 5.99203C27.4548 6.03578 27.4954 6.08265 27.536 6.12641C27.6235 6.22328 27.461 6.03266 27.4641 6.03266C27.4766 6.03266 27.5173 6.10766 27.5235 6.11704C27.5954 6.22641 27.6579 6.33891 27.711 6.46079C27.6798 6.38579 27.6485 6.31079 27.6173 6.23579C27.6923 6.41704 27.7454 6.60453 27.7704 6.80141C27.7579 6.71703 27.7485 6.63579 27.736 6.55141C27.7641 6.80766 27.7516 7.07016 27.7516 7.32952V8.85141V11.1483V13.967V17.0483V20.1733V23.0827V25.5171V27.2577V28.0421C27.7516 28.1358 27.7454 28.2296 27.736 28.3233C27.7485 28.239 27.7579 28.1577 27.7704 28.0733C27.7454 28.2702 27.6923 28.4577 27.6173 28.639C27.6485 28.564 27.6798 28.489 27.711 28.414C27.661 28.5265 27.6048 28.6358 27.536 28.739C27.5173 28.7671 27.4954 28.7952 27.4766 28.8233C27.4298 28.9046 27.6391 28.6327 27.536 28.7452C27.4954 28.7921 27.4548 28.8358 27.411 28.8796C27.3673 28.9233 27.3204 28.964 27.2766 29.0046C27.1798 29.0921 27.3704 28.9296 27.3704 28.9327C27.3704 28.9452 27.2954 28.9859 27.286 28.9921C27.1766 29.064 27.0641 29.1265 26.9423 29.1796L27.1673 29.0859C26.986 29.1609 26.7985 29.214 26.6016 29.239C26.686 29.2265 26.7673 29.2171 26.8516 29.2046C26.5798 29.2359 26.2985 29.2202 26.0235 29.2202H24.3516H21.8454H18.786H15.4142H12.0079H8.83603H6.16729H4.27666H3.41415C3.3204 29.2202 3.22353 29.214 3.12977 29.2046C3.21415 29.2171 3.29539 29.2265 3.37977 29.239C3.1829 29.214 2.99539 29.1609 2.81415 29.0859L3.03915 29.1796C2.92665 29.1296 2.81727 29.0733 2.71415 29.0046C2.68602 28.9859 2.6579 28.964 2.62977 28.9452C2.54852 28.8983 2.82039 29.1077 2.7079 29.0046C2.66102 28.964 2.61727 28.9233 2.57352 28.8796C2.52977 28.8358 2.48914 28.789 2.44852 28.7452C2.36102 28.6483 2.52352 28.839 2.52039 28.839C2.50789 28.839 2.46727 28.764 2.46102 28.7546C2.38914 28.6452 2.32664 28.5327 2.27352 28.4108C2.30477 28.4858 2.33602 28.5608 2.36727 28.6358C2.29227 28.4546 2.23914 28.2671 2.21414 28.0702C2.22664 28.1546 2.23602 28.2358 2.24852 28.3202C2.22039 28.064 2.23289 27.8015 2.23289 27.5421V26.0202V23.7234V20.9046V17.8234V14.6983V11.789V9.35456V7.61393V6.82954C2.23289 6.73579 2.23914 6.64204 2.24852 6.54828C2.23602 6.63266 2.22664 6.71391 2.21414 6.79828C2.23914 6.60141 2.29227 6.41391 2.36727 6.23266C2.33602 6.30766 2.30477 6.38266 2.27352 6.45766C2.32352 6.34516 2.37977 6.23579 2.44852 6.13266C2.46727 6.10454 2.48915 6.07641 2.5079 6.04828C2.55477 5.96703 2.34539 6.23891 2.44852 6.12641C2.48915 6.07953 2.52977 6.03579 2.57352 5.99203C2.61727 5.94828 2.66414 5.90765 2.7079 5.86703C2.80477 5.77953 2.61415 5.94203 2.61415 5.93891C2.61415 5.92641 2.68915 5.88578 2.69853 5.87953C2.8079 5.80765 2.9204 5.74515 3.04227 5.69203L2.81727 5.78578C2.99853 5.71078 3.18602 5.65765 3.3829 5.63265C3.29852 5.64515 3.21727 5.65453 3.1329 5.66703C3.5454 5.62015 3.97353 5.6514 4.38604 5.6514H6.22353H6.66102L5.72354 4.71392V6.59518C5.72354 6.8733 5.71729 7.15455 5.72354 7.4358C5.73604 7.95768 6.04541 8.43266 6.57039 8.57021C6.72352 8.61083 6.86414 8.60771 7.01414 8.60771H9.211C9.31413 8.60771 9.42038 8.61083 9.5235 8.60771C10.1485 8.58895 10.6454 8.14833 10.6829 7.51393C10.6954 7.30143 10.686 7.08893 10.686 6.87645V4.71708L9.74851 5.65456H13.3017H18.9298H20.2298L19.2923 4.71708V6.59833C19.2923 6.87646 19.286 7.15771 19.2923 7.43896C19.3048 7.96084 19.6142 8.43582 20.1391 8.57336C20.2923 8.61399 20.4329 8.61086 20.5829 8.61086H22.7797C22.8829 8.61086 22.9891 8.61399 23.0923 8.61086C23.7173 8.59211 24.2141 8.15148 24.2516 7.51709C24.2641 7.30459 24.2547 7.09209 24.2547 6.8796V4.72023L23.3173 5.65772H26.1704H26.586C27.0766 5.65772 27.5454 5.22647 27.5235 4.72023C27.5079 4.20773 27.1204 3.77646 26.5954 3.77646L26.5953 3.77653Z" fill="white"/>
<path d="M1.29516 12.1019H2.02641H4.02019H6.97019H10.567H14.5077H18.4858H22.1826H25.3295H27.5764C27.9326 12.1019 28.2889 12.1051 28.6451 12.1019H28.692C29.1826 12.1019 29.6513 11.6707 29.6295 11.1645C29.6076 10.6551 29.217 10.227 28.692 10.227H27.9607H25.9669H23.0169H19.4201H15.4795H11.5013H7.80449H4.65763H2.41077C2.05452 10.227 1.69826 10.2238 1.34203 10.227H1.29516C0.804534 10.227 0.335785 10.6582 0.357671 11.1645C0.382671 11.6707 0.770174 12.1019 1.29516 12.1019Z" fill="white"/>
<path d="M8.81666 2.06445V3.90822V6.81759C8.81666 7.04571 8.83541 7.28321 8.81353 7.51136C8.82604 7.42698 8.83541 7.34574 8.84791 7.26136C8.84478 7.27386 8.84166 7.28636 8.83541 7.29886C8.86666 7.22386 8.89791 7.14886 8.92916 7.07386C8.99166 6.98011 9.06666 6.90511 9.16041 6.84261L9.38541 6.74886C9.37291 6.75199 9.36041 6.75511 9.34791 6.76136C9.43229 6.74886 9.51353 6.73949 9.59791 6.72699C9.28853 6.75824 8.96351 6.73011 8.65414 6.73011H7.19477C7.07289 6.73011 6.94477 6.73949 6.82289 6.72699C6.90727 6.73949 6.98852 6.74886 7.07289 6.76136C7.06039 6.75824 7.04789 6.75511 7.03539 6.74886L7.26039 6.84261C7.35414 6.90511 7.42914 6.98011 7.49164 7.07386C7.52289 7.14886 7.55415 7.22386 7.58539 7.29886C7.58227 7.28636 7.57914 7.27386 7.57289 7.26136C7.58539 7.34574 7.59477 7.42698 7.60727 7.51136C7.58852 7.32698 7.60414 7.13323 7.60414 6.94886V5.65823V2.72074C7.60414 2.49262 7.58539 2.25512 7.60727 2.02697C7.59477 2.11135 7.58539 2.19259 7.57289 2.27697C7.57602 2.26447 7.57914 2.25197 7.58539 2.23947C7.55414 2.31447 7.52289 2.38947 7.49164 2.46447C7.42914 2.55822 7.35415 2.63322 7.26039 2.69572C7.18539 2.72697 7.11039 2.75823 7.03539 2.78947C7.04789 2.78635 7.06039 2.78322 7.07289 2.77697C6.98852 2.78947 6.90727 2.79885 6.82289 2.81135C7.13227 2.7801 7.45729 2.80822 7.76666 2.80822H9.22604C9.34791 2.80822 9.47604 2.79885 9.59791 2.81135C9.51353 2.79885 9.43229 2.78947 9.34791 2.77697C9.36041 2.7801 9.37291 2.78322 9.38541 2.78947C9.31041 2.75822 9.23541 2.72697 9.16041 2.69572C9.06666 2.63322 8.99166 2.55823 8.92916 2.46447C8.89791 2.38947 8.86666 2.31447 8.83541 2.23947C8.83854 2.25197 8.84166 2.26447 8.84791 2.27697C8.83541 2.19259 8.82604 2.11135 8.81353 2.02697C8.81353 2.03947 8.81666 2.05197 8.81666 2.06447C8.84166 2.32072 8.90416 2.53947 9.09166 2.72699C9.25416 2.88949 9.51979 3.01136 9.75417 3.00199C10.2198 2.98011 10.7448 2.58636 10.6917 2.0645C10.6698 1.84575 10.6385 1.67075 10.5292 1.4801C10.4323 1.31135 10.2729 1.17072 10.1073 1.07385C9.93541 0.973848 9.73228 0.936351 9.5354 0.9301C9.44165 0.926975 9.35102 0.9301 9.25727 0.9301H8.11664H7.05104C6.98854 0.9301 6.92604 0.926975 6.86355 0.9301C6.23229 0.9551 5.7448 1.43635 5.72914 2.07073C5.69477 3.35513 5.72914 4.6457 5.72914 5.93324C5.72914 6.43637 5.71352 6.94261 5.72914 7.44884C5.74477 7.92072 5.98852 8.32381 6.426 8.51136C6.61038 8.58948 6.79475 8.60823 6.98851 8.60823H7.99473H9.16033C9.27596 8.60823 9.38846 8.61136 9.50408 8.60823C9.93221 8.60198 10.2947 8.41761 10.5322 8.05823C10.7072 7.79261 10.6947 7.48948 10.6947 7.19263V6.33326V2.15829V2.06767C10.6947 1.57704 10.2634 1.10829 9.75721 1.13018C9.24471 1.14893 8.81659 1.53956 8.81659 2.06458L8.81666 2.06445Z" fill="white"/>
<path d="M22.3889 2.06445V3.90822V6.81759C22.3889 7.04571 22.4077 7.28321 22.3858 7.51136C22.3983 7.42698 22.4077 7.34574 22.4202 7.26136C22.417 7.27386 22.4139 7.28636 22.4077 7.29886L22.5014 7.07386C22.5639 6.98011 22.6389 6.90511 22.7327 6.84261L22.9577 6.74886C22.9452 6.75199 22.9327 6.75511 22.9202 6.76136C23.0046 6.74886 23.0858 6.73949 23.1702 6.72699C22.8608 6.75824 22.5358 6.73011 22.2264 6.73011H20.767C20.6452 6.73011 20.517 6.73949 20.3952 6.72699C20.4795 6.73949 20.5608 6.74886 20.6452 6.76136C20.6327 6.75824 20.6202 6.75511 20.6077 6.74886L20.8327 6.84261C20.9264 6.90511 21.0014 6.98011 21.0639 7.07386L21.1577 7.29886C21.1545 7.28636 21.1514 7.27386 21.1452 7.26136C21.1577 7.34574 21.167 7.42698 21.1795 7.51136C21.1608 7.32698 21.1764 7.13323 21.1764 6.94886V5.65823V2.72074C21.1764 2.49262 21.1577 2.25512 21.1795 2.02697C21.167 2.11135 21.1577 2.19259 21.1452 2.27697C21.1483 2.26447 21.1514 2.25197 21.1577 2.23947L21.0639 2.46447C21.0014 2.55822 20.9264 2.63322 20.8327 2.69572C20.7577 2.72697 20.6827 2.75823 20.6077 2.78947C20.6202 2.78635 20.6327 2.78322 20.6452 2.77697C20.5608 2.78947 20.4795 2.79885 20.3952 2.81135C20.7045 2.7801 21.0296 2.80822 21.3389 2.80822H22.7983C22.9202 2.80822 23.0483 2.79885 23.1702 2.81135C23.0858 2.79885 23.0046 2.78947 22.9202 2.77697C22.9327 2.7801 22.9452 2.78322 22.9577 2.78947C22.8827 2.75822 22.8077 2.72697 22.7327 2.69572C22.6389 2.63322 22.5639 2.55823 22.5014 2.46447L22.4077 2.23947C22.4108 2.25197 22.4139 2.26447 22.4202 2.27697C22.4077 2.19259 22.3983 2.11135 22.3858 2.02697C22.3858 2.03947 22.3889 2.05197 22.3889 2.06447C22.4139 2.32072 22.4764 2.53947 22.6639 2.72699C22.8264 2.88949 23.0921 3.01136 23.3264 3.00199C23.7921 2.98011 24.3171 2.58636 24.2639 2.0645C24.2421 1.84575 24.2108 1.67075 24.1014 1.4801C24.0045 1.31135 23.8452 1.17072 23.6795 1.07385C23.5077 0.973848 23.3045 0.936351 23.1077 0.9301C23.0139 0.926975 22.9233 0.9301 22.8295 0.9301H21.6889H20.6233C20.5608 0.9301 20.4983 0.926975 20.4358 0.9301C19.8046 0.9551 19.3171 1.43635 19.3014 2.07073C19.267 3.35513 19.3014 4.6457 19.3014 5.93324C19.3014 6.43637 19.2858 6.94261 19.3014 7.44884C19.317 7.92072 19.5608 8.32381 19.9983 8.51136C20.1826 8.58948 20.367 8.60823 20.5608 8.60823H21.567H22.7357C22.8514 8.60823 22.9639 8.61136 23.0795 8.60823C23.5076 8.60198 23.8701 8.41761 24.1076 8.05823C24.2826 7.79261 24.2701 7.48948 24.2701 7.19263V6.33326V2.15829V2.06767C24.2701 1.57704 23.8389 1.10829 23.3326 1.13018C22.817 1.14893 22.3889 1.53956 22.3889 2.06458L22.3889 2.06445Z" fill="white"/>
<path d="M17.4104 19.82H19.9042H23.8791H24.7916L23.8542 18.8826V21.3763V25.3513V26.2638L24.7916 25.3263H22.2979H18.3229H17.4104L18.3479 26.2638V23.77V19.7951V18.8826C18.3479 18.3919 17.9166 17.9232 17.4104 17.9451C16.901 17.9669 16.4729 18.3576 16.4729 18.8826V21.3763V25.3513V26.2638C16.4729 26.7701 16.901 27.2013 17.4104 27.2013H19.9042H23.8791H24.7916C25.2979 27.2013 25.7291 26.7732 25.7291 26.2638V23.77V19.7951V18.8826C25.7291 18.3763 25.301 17.9451 24.7916 17.9451H22.2979H18.3229H17.4104C16.9198 17.9451 16.451 18.3763 16.4729 18.8826C16.4979 19.3919 16.8854 19.82 17.4104 19.82Z" fill="white"/>
</svg>
