<svg width="38" height="32" viewBox="0 0 38 32" fill="none" xmlns="http://www.w3.org/2000/svg">
<path d="M10.5123 3.42155V1.67361C10.5048 1.47396 10.58 1.27969 10.7207 1.1372M10.5123 3.42155L10.7207 1.1372M10.5123 3.42155H8.69741C8.25698 3.42155 7.93413 3.81143 7.93413 4.22641V5.9997L6.14163 5.99969L6.14055 5.9997C5.71033 6.0028 5.36155 6.34993 5.35604 6.78003L5.35603 6.78003V6.78195V8.57781H3.5861C3.17328 8.57781 2.7779 8.89537 2.7779 9.33775V11.156H1.03368C0.834275 11.1476 0.639931 11.2216 0.496869 11.3611L10.5123 3.42155ZM10.7207 1.1372C10.8613 0.994554 11.0549 0.916583 11.2549 0.921575M10.7207 1.1372C10.7207 1.13725 10.7206 1.13729 10.7206 1.13733L11.2549 0.921575M11.2549 0.921575H37.0107C37.2119 0.915967 37.4062 0.993105 37.5489 1.13476L37.5491 1.13502C37.6914 1.27694 37.77 1.47092 37.7654 1.67235V20.092C37.7694 20.2924 37.6904 20.4858 37.5465 20.6258C37.5465 20.6258 37.5465 20.6259 37.5464 20.6259L37.4418 20.5184C37.3277 20.6298 37.1723 20.6886 37.013 20.6811L11.2549 0.921575ZM27.3225 30.8499C27.4633 30.7074 27.5385 30.5131 27.531 30.3134V28.5655H29.3459C29.7863 28.5655 30.1091 28.1756 30.1091 27.7606V25.9874L31.9016 25.9874L31.9027 25.9874C32.333 25.9843 32.6817 25.6371 32.6872 25.207V25.2051V23.4092H34.4572C34.87 23.4092 35.2654 23.0917 35.2654 22.6493V20.8311H37.0096L27.2158 30.7444M27.3225 30.8499L27.2158 30.7444M27.3225 30.8499C27.3226 30.8498 27.3226 30.8498 27.3227 30.8497L27.2158 30.7444M27.3225 30.8499C27.1819 30.9925 26.9884 31.0705 26.7884 31.0655M27.2158 30.7444C27.1039 30.858 26.9497 30.9199 26.7903 30.9155M26.7884 31.0655H26.7903V30.9155M26.7884 31.0655H1.03257M26.7884 31.0655C26.7876 31.0655 26.7869 31.0654 26.7861 31.0654L26.7903 30.9155M26.7903 30.9155L1.03257 31.0655M1.03257 31.0655C1.03338 31.0655 1.0342 31.0654 1.03502 31.0654L1.03033 30.9155V31.0655H1.03257ZM1.03257 31.0655C0.831417 31.0711 0.637132 30.994 0.494418 30.8523L0.494156 30.852C0.351851 30.7101 0.273252 30.5161 0.277932 30.3146M1.03257 31.0655L0.600089 30.7458C0.486247 30.6323 0.423747 30.4771 0.427932 30.3164M0.277932 30.3146V30.3164H0.427932M0.277932 30.3146C0.277948 30.3139 0.277965 30.3132 0.277983 30.3125L0.427932 30.3164M0.277932 30.3146V11.8952M0.427932 30.3164V11.8936M0.427932 11.8936L0.277971 11.897C0.277957 11.8964 0.277944 11.8958 0.277932 11.8952M0.427932 11.8936C0.424303 11.734 0.487082 11.58 0.601482 11.4686L0.496804 11.3612C0.352919 11.5012 0.273872 11.6947 0.277932 11.8952M0.427932 11.8936H0.277932V11.8952M7.93406 22.6483C7.93189 22.8513 8.01161 23.0468 8.15571 23.1902L8.15584 23.1903C8.29991 23.3333 8.49547 23.4125 8.69868 23.4091H31.1373V24.437H6.90592V7.54986H7.93406V22.6483ZM7.93406 22.6483C7.93406 22.648 7.93407 22.6477 7.93407 22.6473L8.08406 22.6491H7.93406V22.6483ZM29.9591 25.8374H30.1091L29.9591 25.9874V25.8374ZM27.381 28.4155H27.531L27.381 28.5655V28.4155ZM17.9361 10.6303L17.905 10.6152H17.9037C17.6846 10.5182 17.431 10.5334 17.2243 10.6572C17.224 10.6574 17.2237 10.6576 17.2234 10.6578L12.0622 13.6611V2.47124L36.2153 2.47157V13.0312L29.762 8.45205C29.7619 8.45199 29.7618 8.45193 29.7618 8.45187C29.4577 8.23467 29.0411 8.26825 28.7759 8.53154C28.7758 8.53164 28.7757 8.53174 28.7756 8.53184L23.7566 13.4675L17.9361 10.6303ZM3.5864 28.565H25.9814L25.9811 29.5151H1.8282V12.7059H2.7782V27.7601H2.7781L2.7783 27.7656C2.79431 28.202 3.14546 28.551 3.5816 28.5649L3.5816 28.565H3.5864ZM6.14152 25.9874H28.5594L28.5592 27.0151H4.32778V10.128H5.35592L5.35591 25.2051L5.35593 25.2071C5.36144 25.6372 5.71021 25.9843 6.14044 25.9874H6.14152ZM12.0625 19.2809V15.4532L17.6471 12.2044L22.5942 14.6017L17.8069 19.2809H12.0625ZM33.7154 21.8589H9.48406V4.97172H10.5122V20.0903C10.505 20.2898 10.5816 20.4827 10.7227 20.623C10.864 20.7637 11.0571 20.8389 11.2561 20.8308H33.7151L33.7154 21.8589ZM36.2154 19.2804L20.018 19.2807L29.3945 10.0723L36.2154 14.9302V19.2804Z" fill="#1A1941" stroke="#1A1941" stroke-width="0.3"/>
<path d="M22.7568 10.4999H22.757C23.4979 10.4999 24.2085 10.2057 24.7325 9.68171L24.7325 9.68171C25.2564 9.15776 25.5507 8.4472 25.5507 7.70621C25.5507 6.96527 25.2565 6.25471 24.7325 5.73072L24.7325 5.73072C24.2085 5.20677 23.498 4.9125 22.757 4.9125C22.016 4.9125 21.3055 5.20676 20.7815 5.73072L20.7815 5.73072C20.2576 6.25467 19.9633 6.96522 19.9633 7.70621L19.9633 7.70639C19.9642 8.44701 20.2587 9.15697 20.7823 9.68083L20.7824 9.68088C21.3063 10.2045 22.0162 10.499 22.7568 10.4999ZM23.6364 6.82684L23.6364 6.82684C23.8697 7.06015 24.0007 7.37634 24.0007 7.70627C24.0007 8.0362 23.8697 8.35241 23.6364 8.5857L23.6364 8.58571C23.4031 8.81902 23.0869 8.94997 22.757 8.94997C22.4271 8.94997 22.1109 8.81901 21.8776 8.58571L21.8775 8.58565C21.6443 8.35272 21.5133 8.03634 21.5133 7.70642C21.5138 7.37669 21.6448 7.06072 21.8781 6.82741L21.8781 6.82741C22.1112 6.59433 22.4272 6.46308 22.7572 6.46258L22.7599 6.46257C23.0885 6.46334 23.4038 6.59423 23.6364 6.82684Z" fill="#1A1941" stroke="#1A1941" stroke-width="0.3"/>
</svg>
