<svg width="32" height="26" viewBox="0 0 32 26" fill="none" xmlns="http://www.w3.org/2000/svg">
<path fill-rule="evenodd" clip-rule="evenodd" d="M21.4223 17.1407C19.4033 15.1215 15.9238 16.5362 15.9238 19.4008C15.9238 19.6275 15.9477 19.849 15.9915 20.0626L17.525 21.7045L21.4223 17.1407ZM0 17.4791V0.371094H22.744V2.52669H2.156V17.4787H0.000400216L0 17.4791ZM3.65691 20.9855V3.87755H26.4009V6.03315H5.81234V20.9852H3.65674L3.65691 20.9855ZM14.4009 18.3574C13.9299 17.8528 13.2799 17.6372 12.7141 18.1644L9.43571 21.8442V9.5231H29.782V21.0002L24.3389 15.5574C23.9081 15.1264 23.2072 15.1264 22.7753 15.5574C22.6755 15.6589 22.5773 15.7891 22.4833 15.8982C19.722 13.2563 15.1959 14.7389 14.4005 18.3574L14.4009 18.3574ZM7.28034 25.6249V7.36772H31.9375V25.6249H7.28034Z" fill="white"/>
</svg>
