<svg width="38" height="26" viewBox="0 0 38 26" fill="none" xmlns="http://www.w3.org/2000/svg">
<path d="M19.1269 12.3777C22.3174 12.3777 24.9268 9.76809 24.9268 6.57758C24.9268 3.38549 22.3156 0.817578 19.1269 0.817578C15.9364 0.817578 13.3669 3.38734 13.3669 6.57758C13.3669 9.76623 15.9345 12.3777 19.1269 12.3777ZM19.1269 2.45772C21.3776 2.45772 23.2469 4.28931 23.2469 6.57772C23.2469 8.8674 21.4165 10.6977 19.1269 10.6977C16.8762 10.6977 15.0069 8.86613 15.0069 6.57772C15.0069 4.28924 16.8762 2.45772 19.1269 2.45772Z" fill="white" stroke="white" stroke-width="0.4"/>
<path d="M19.1667 12.7775C17.0395 12.7775 14.9966 13.5139 13.2833 14.86C11.61 16.1662 10.3488 17.9996 9.61758 20.1528C9.19644 21.3741 9.40677 22.7212 10.1235 23.7333L10.1239 23.7339C10.7593 24.6238 11.7388 25.1377 12.7666 25.1377H25.6066C26.6347 25.1377 27.6139 24.6237 28.2493 23.7339L28.2498 23.7333C28.9666 22.7212 29.1769 21.3741 28.7556 20.1523L28.7548 20.1501C28.0518 18.1887 26.9418 16.4918 25.4827 15.2175H25.5051L25.0504 14.8602C23.3371 13.5141 21.294 12.7775 19.1667 12.7775ZM27.1777 20.722C27.3873 21.3525 27.2951 22.1202 26.9041 22.6975H26.9021L26.8424 22.7837C26.5162 23.255 26.0551 23.4974 25.5669 23.4974H12.7269C12.2388 23.4974 11.7777 23.2549 11.4515 22.7839C11.048 22.1967 10.9358 21.4222 11.1569 20.7198C11.7854 18.875 12.8833 17.3093 14.2897 16.2156L14.2903 16.2151C15.7362 15.0819 17.4132 14.4976 19.1669 14.4976C20.9202 14.4976 22.5968 15.0813 24.0425 16.2143C25.4514 17.3494 26.5495 18.9172 27.1777 20.722Z" fill="white" stroke="white" stroke-width="0.4"/>
<path d="M4.84669 8.61727C4.84695 7.08762 6.07745 5.85717 7.60676 5.85717C9.13638 5.85717 10.3668 7.08763 10.3668 8.61724C10.3668 10.1469 9.13638 11.3773 7.60676 11.3773C6.07715 11.3773 4.84669 10.1469 4.84669 8.61727ZM4.84669 8.61727L4.64669 8.61724L4.84669 8.61727ZM7.60676 12.6172C9.83858 12.6172 11.6067 10.8065 11.6067 8.61731C11.6067 6.38549 9.79592 4.61738 7.60676 4.61738C5.37559 4.61738 3.60787 6.4271 3.60683 8.61539C3.56581 10.8099 5.37918 12.6172 7.60676 12.6172Z" fill="white" stroke="white" stroke-width="0.4"/>
<path d="M30.3272 11.7781C32.5975 11.7781 34.4471 9.92852 34.4471 7.65821C34.4471 5.3879 32.5975 3.53828 30.3272 3.53828C28.0568 3.53828 26.2072 5.3879 26.2072 7.65821C26.2072 9.92881 28.0566 11.7781 30.3272 11.7781ZM30.3272 4.85821C31.8967 4.85821 33.1671 6.1286 33.1671 7.69814C33.1671 9.26768 31.8967 10.5381 30.3272 10.5381C28.7576 10.5381 27.4872 9.26768 27.4872 7.69814C27.4872 6.1286 28.7576 4.85821 30.3272 4.85821Z" fill="white" stroke="white" stroke-width="0.4"/>
<path d="M30.2871 11.9377C28.8015 11.9377 27.3579 12.4331 26.1233 13.4207C25.7512 13.7104 25.4224 14.0394 25.1366 14.3659L24.9865 14.5374L25.1761 14.664C25.2329 14.7019 25.3001 14.7499 25.3709 14.8004L25.3727 14.8017C25.4414 14.8508 25.5136 14.9023 25.5762 14.9441C25.6281 14.9787 25.6719 15.0136 25.7224 15.054L25.7244 15.0556C25.7734 15.0948 25.8291 15.1392 25.8962 15.1841L26.0438 15.2825L26.1592 15.1478C26.3934 14.8744 26.6617 14.6076 26.9235 14.4203L26.9236 14.4204L26.9291 14.4162C27.9379 13.6402 29.0958 13.2177 30.2871 13.2177C31.4804 13.2177 32.6766 13.6415 33.6421 14.4138C34.612 15.1896 35.3894 16.2774 35.8172 17.5608L35.8172 17.5608L35.8186 17.5649C35.9968 18.0635 35.9266 18.5576 35.6405 18.9865L35.6405 18.9865C35.4386 19.2893 35.1017 19.4574 34.767 19.4574L29.1269 19.4577L28.8496 19.4577L28.9371 19.7208L28.9385 19.725C28.9754 19.8358 29.0184 19.9651 29.064 20.059C29.136 20.2404 29.1726 20.386 29.2106 20.5768L29.2427 20.7377H29.4068H34.7667C35.5187 20.7377 36.2132 20.3405 36.684 19.7414L36.6897 19.7342L36.6947 19.7265C37.1649 19.0003 37.3376 18.0574 37.0368 17.1544L37.0014 17.1635L37.0358 17.1515C36.5038 15.6375 35.6026 14.3669 34.454 13.4232L34.4541 13.4231L34.4487 13.419C33.2181 12.4756 31.7763 11.9377 30.2871 11.9377Z" fill="white" stroke="white" stroke-width="0.4"/>
<path d="M3.52286 14.2207C2.36926 15.1272 1.50926 16.4002 0.97874 17.8698L0.978731 17.8698L0.978097 17.8716C0.676636 18.7324 0.806218 19.6402 1.32349 20.373L1.32416 20.374C1.75663 20.9792 2.4538 21.3776 3.16689 21.3776H8.64682H8.84682V21.1776C8.84682 20.9175 8.88372 20.6543 8.96082 20.3462L9.02302 20.0976H8.7668H3.16694C2.88302 20.0976 2.58177 19.939 2.37349 19.6267L2.3441 19.5826L2.34154 19.5813C2.08494 19.2035 2.02216 18.7292 2.19521 18.2448L2.19601 18.2426C2.62407 16.9972 3.36236 15.9494 4.33188 15.1739C5.29585 14.4028 6.45169 14.0176 7.60709 14.0176C8.80157 14.0176 9.91773 14.4023 10.8823 15.1739L10.8891 15.1793L10.8963 15.1841C11.1171 15.3312 11.3036 15.5168 11.5059 15.7191L11.6473 15.8605L11.7887 15.7191C11.9894 15.5184 12.1834 15.3246 12.4153 15.1315L12.5837 14.9913L12.4288 14.8364L12.4251 14.8327C12.1877 14.5953 11.9425 14.3501 11.6956 14.1442L11.6891 14.1388L11.6822 14.134C10.4529 13.2735 9.05361 12.7775 7.60686 12.7775C6.16115 12.7775 4.71783 13.273 3.52286 14.2207Z" fill="white" stroke="white" stroke-width="0.4"/>
</svg>
