<svg width="14" height="14" viewBox="0 0 14 14" fill="none" xmlns="http://www.w3.org/2000/svg">
<path fill-rule="evenodd" clip-rule="evenodd" d="M7.58395 1.66634H6.34572V2.30203C6.34572 2.80706 6.06038 3.26874 5.60867 3.4946L5.54978 3.52404C5.03647 3.7807 4.4165 3.68009 4.01069 3.27428L3.53608 2.79967L2.76452 3.57124L3.23912 4.04585C3.64494 4.45166 3.74554 5.07162 3.48888 5.58494L3.45944 5.64383C3.23358 6.09554 2.7719 6.38087 2.26687 6.38087H1.63118V7.61911H2.26687C2.7719 7.61911 3.23359 7.90444 3.45944 8.35615L3.48888 8.41504C3.74554 8.92836 3.64494 9.54832 3.23912 9.95413L2.76452 10.4287L3.53608 11.2003L4.01069 10.7257C4.4165 10.3199 5.03647 10.2193 5.54978 10.4759L5.60867 10.5054C6.06038 10.7312 6.34572 11.1929 6.34572 11.698V12.3336H7.58395V11.698C7.58395 11.1929 7.86929 10.7312 8.321 10.5054L8.37988 10.4759C8.8932 10.2193 9.51316 10.3199 9.91898 10.7257L10.3936 11.2003L11.1652 10.4287L10.6905 9.95413C10.2847 9.54832 10.1841 8.92836 10.4408 8.41504L10.4702 8.35615C10.6961 7.90444 11.1578 7.61911 11.6628 7.61911H12.2985V6.38087H11.6628C11.1578 6.38087 10.6961 6.09554 10.4702 5.64383L10.4408 5.58494C10.1841 5.07162 10.2847 4.45166 10.6905 4.04585L11.1652 3.57124L10.3936 2.79967L9.91898 3.27428C9.51316 3.68009 8.8932 3.7807 8.37988 3.52404L8.321 3.4946C7.86928 3.26874 7.58395 2.80706 7.58395 2.30203V1.66634ZM6.96458 4.61892C5.64971 4.61892 4.58379 5.68484 4.58379 6.99971C4.58379 8.31459 5.64971 9.38051 6.96458 9.38051C8.27946 9.38051 9.34538 8.31459 9.34538 6.99971C9.34538 5.68484 8.27946 4.61892 6.96458 4.61892Z" fill="#1A1941"/>
<path fill-rule="evenodd" clip-rule="evenodd" d="M5.01239 1.66634C5.01239 0.929962 5.60934 0.333008 6.34572 0.333008H7.58395C8.32033 0.333008 8.91728 0.929962 8.91728 1.66634V2.30203L8.97617 2.33147L9.45078 1.85686C9.97148 1.33616 10.8157 1.33616 11.3364 1.85686L12.108 2.62843C12.6287 3.14913 12.6287 3.99335 12.108 4.51405L11.6334 4.98866L11.6628 5.04754H12.2985C13.0349 5.04754 13.6318 5.6445 13.6318 6.38087V7.61911C13.6318 8.35548 13.0349 8.95244 12.2985 8.95244H11.6628L11.6334 9.01132L12.108 9.48593C12.6287 10.0066 12.6287 10.8509 12.108 11.3716L11.3364 12.1431C10.8157 12.6638 9.97148 12.6638 9.45078 12.1431L8.97617 11.6685L8.91728 11.698V12.3336C8.91728 13.07 8.32033 13.667 7.58395 13.667H6.34572C5.60934 13.667 5.01239 13.07 5.01239 12.3336V11.698L4.9535 11.6685L4.47889 12.1431C3.95819 12.6638 3.11397 12.6638 2.59327 12.1431L1.82171 11.3716C1.30101 10.8509 1.30101 10.0066 1.82171 9.48593L2.29631 9.01132L2.26687 8.95244H1.63118C0.894805 8.95244 0.297852 8.35548 0.297852 7.61911V6.38087C0.297852 5.6445 0.894805 5.04754 1.63118 5.04754H2.26687L2.29631 4.98866L1.82171 4.51405C1.30101 3.99335 1.30101 3.14913 1.82171 2.62843L2.59327 1.85686C3.11397 1.33616 3.95819 1.33616 4.47889 1.85686L4.9535 2.33147L5.01239 2.30203V1.66634ZM7.58395 1.66634H6.34572V2.30203C6.34572 2.80706 6.06038 3.26874 5.60867 3.4946L5.54978 3.52404C5.03647 3.7807 4.4165 3.68009 4.01069 3.27428L3.53608 2.79967L2.76452 3.57124L3.23912 4.04585C3.64494 4.45166 3.74554 5.07162 3.48888 5.58494L3.45944 5.64383C3.23358 6.09554 2.7719 6.38087 2.26687 6.38087H1.63118V7.61911H2.26687C2.7719 7.61911 3.23359 7.90444 3.45944 8.35615L3.48888 8.41504C3.74554 8.92836 3.64494 9.54832 3.23912 9.95413L2.76452 10.4287L3.53608 11.2003L4.01069 10.7257C4.4165 10.3199 5.03647 10.2193 5.54978 10.4759L5.60867 10.5054C6.06038 10.7312 6.34572 11.1929 6.34572 11.698V12.3336H7.58395V11.698C7.58395 11.1929 7.86929 10.7312 8.321 10.5054L8.37988 10.4759C8.8932 10.2193 9.51316 10.3199 9.91898 10.7257L10.3936 11.2003L11.1652 10.4287L10.6905 9.95413C10.2847 9.54832 10.1841 8.92836 10.4408 8.41504L10.4702 8.35615C10.6961 7.90444 11.1578 7.61911 11.6628 7.61911H12.2985V6.38087H11.6628C11.1578 6.38087 10.6961 6.09554 10.4702 5.64383L10.4408 5.58494C10.1841 5.07162 10.2847 4.45166 10.6905 4.04585L11.1652 3.57124L10.3936 2.79967L9.91898 3.27428C9.51316 3.68009 8.8932 3.7807 8.37988 3.52404L8.321 3.4946C7.86928 3.26874 7.58395 2.80706 7.58395 2.30203V1.66634Z" fill="#1A1941"/>
</svg>
