<svg width="14" height="14" viewBox="0 0 14 14" fill="none" xmlns="http://www.w3.org/2000/svg">
<path fill-rule="evenodd" clip-rule="evenodd" d="M8.96896 4.33301C8.96896 6.54215 7.1781 8.33301 4.96896 8.33301C2.75982 8.33301 0.968957 6.54215 0.968957 4.33301C0.968957 2.12387 2.75982 0.333008 4.96896 0.333008C7.1781 0.333008 8.96896 2.12387 8.96896 4.33301ZM4.96896 6.99967C6.44172 6.99967 7.63562 5.80577 7.63562 4.33301C7.63562 2.86025 6.44172 1.66634 4.96896 1.66634C3.4962 1.66634 2.30229 2.86025 2.30229 4.33301C2.30229 5.80577 3.4962 6.99967 4.96896 6.99967ZM2.31892 10.7916C1.70614 11.0768 1.66683 11.3257 1.66683 11.333V11.3379V11.3428V11.3477V11.3525V11.3574V11.3623V11.3672V11.3721V11.3769V11.3818V11.3867V11.3916V11.3965V11.4014V11.4062V11.4111V11.416V11.4209V11.4257V11.4306V11.4355V11.4404V11.4452V11.4501V11.455V11.4599V11.4647V11.4696V11.4745V11.4793V11.4842V11.4891V11.4939V11.4988V11.5036V11.5085V11.5134V11.5182V11.5231V11.5279V11.5328V11.5376V11.5425V11.5473V11.5522V11.557V11.5619V11.5667V11.5715V11.5764V11.5812V11.586V11.5909V11.5957V11.6005V11.6054V11.6102V11.615V11.6198V11.6246V11.6295V11.6343V11.6391V11.6439V11.6487V11.6535V11.6583V11.6631V11.6679V11.6727V11.6775V11.6823V11.687V11.6918V11.6966V11.7014V11.7062V11.7109V11.7157V11.7205V11.7252V11.73V11.7347V11.7395V11.7442V11.749V11.7537V11.7585V11.7632V11.7679V11.7727V11.7774V11.7821V11.7868V11.7916V11.7963V11.801V11.8057V11.8104V11.8151V11.8198V11.8245V11.8292V11.8338V11.8385V11.8432V11.8479V11.8525V11.8572V11.8619V11.8665V11.8712V11.8758V11.8805V11.8851V11.8897V11.8944V11.899V11.9036V11.9082V11.9128V11.9174V11.922V11.9266V11.9312V11.9358V11.9404V11.945V11.9496V11.9541V11.9587V11.9633V11.9678V11.9724V11.9769V11.9815V11.986V11.9905V11.995V11.9996V12.0041V12.0086V12.0131V12.0176V12.0221V12.0266V12.0311V12.0355V12.04V12.0445V12.0489V12.0534V12.0578V12.0623V12.0667V12.0712V12.0756V12.08V12.0844V12.0888V12.0932V12.0976V12.102V12.1064V12.1108V12.1152V12.1195V12.1239V12.1282V12.1326V12.1369V12.1413V12.1456V12.1499V12.1542V12.1585V12.1628V12.1671V12.1714V12.1757V12.18V12.1842V12.1885V12.1928V12.197V12.2013V12.2055V12.2097V12.2139V12.2182V12.2224V12.2266V12.2308V12.2349V12.2391V12.2433V12.2475V12.2516V12.2558V12.2599V12.264V12.2682V12.2723V12.2764V12.2805V12.2846V12.2887V12.2928V12.2968V12.3009V12.305V12.309V12.313V12.3171V12.3211V12.3251V12.3291V12.3331V12.3371V12.3411V12.3451V12.3491V12.353V12.357V12.3609V12.3649V12.3688V12.3727V12.3766V12.3805V12.3844V12.3883V12.3922V12.396V12.3999V12.4037V12.4076V12.4114V12.4152V12.4191V12.4229V12.4267V12.4304V12.4342V12.438V12.4417V12.4455V12.4492V12.453V12.4567V12.4604V12.4641V12.4678V12.4715V12.4752V12.4788V12.4825V12.4861V12.4898V12.4934V12.497V12.5006V12.5042V12.5078V12.5114V12.515V12.5185V12.5221V12.5256V12.5292V12.5327V12.5362V12.5397V12.5432V12.5467V12.5501V12.5536V12.557V12.5605V12.5639V12.5673V12.5707V12.5741V12.5775V12.5809V12.5842V12.5876V12.5909V12.5943V12.5976V12.6009V12.6042V12.6075V12.6108V12.614V12.6173V12.6205V12.6238V12.627V12.6302V12.6334V12.6366V12.6398V12.643V12.6461V12.6492V12.6524V12.6555V12.6586V12.6617V12.6648V12.6679V12.6709V12.674V12.677V12.6801V12.6831V12.6861V12.6891V12.6921V12.695V12.698V12.7009V12.7039V12.7068V12.7097V12.7126V12.7155V12.7183V12.7212V12.7241V12.7269V12.7297V12.7325V12.7353V12.7381V12.7409V12.7436V12.7464V12.7491V12.7519V12.7546V12.7573V12.7599V12.7626V12.7653V12.7679V12.7706V12.7732V12.7758V12.7784V12.781V12.7835V12.7861V12.7886V12.7912V12.7937V12.7962V12.7987V12.8011V12.8036V12.8061V12.8085V12.8109V12.8133V12.8157V12.8181V12.8205V12.8228V12.8252V12.8275V12.8298V12.8321V12.8344V12.8366V12.8389V12.8411V12.8434V12.8456V12.8478V12.85V12.8521V12.8543V12.8564V12.8586V12.8607V12.8628V12.8649V12.8669V12.869V12.871V12.8731V12.8751V12.8771V12.8791V12.881V12.883V12.8849V12.8869V12.8888V12.8907V12.8925V12.8944V12.8963V12.8981V12.8999V12.9017V12.9035V12.9053V12.907V12.9088V12.9105V12.9122V12.9139V12.9156V12.9173V12.9189V12.9206V12.9222V12.9238V12.9254V12.927V12.9285V12.9301V12.9316V12.9331V12.9346V12.9361V12.9375V12.939V12.9404V12.9418V12.9432V12.9446V12.946V12.9473V12.9486V12.95V12.9513V12.9526V12.9538V12.9551V12.9563V12.9575V12.9587V12.9599V12.9611V12.9622V12.9634V12.9645V12.9656V12.9667V12.9678V12.9688V12.9698V12.9709V12.9719V12.9728V12.9738V12.9748V12.9757V12.9766V12.9775V12.9784V12.9793V12.9801V12.9809V12.9817V12.9825V12.9833V12.9841V12.9848V12.9855V12.9862V12.9869V12.9876V12.9889V12.9901V12.9913V12.9923V12.9933V12.9943V12.9951V12.9959V12.9966V12.9976V12.9983V12.9991C1.66683 13.3673 1.36835 13.6663 1.00016 13.6663C0.631973 13.6663 0.333496 13.3679 0.333496 12.9997V12.9989V12.9981V12.9973V12.9963V12.9955V12.9947V12.9938V12.9928V12.9918V12.9907V12.9895V12.9883V12.9869V12.9862V12.9855V12.9848V12.9841V12.9833V12.9825V12.9817V12.9809V12.9801V12.9793V12.9784V12.9775V12.9766V12.9757V12.9748V12.9738V12.9728V12.9719V12.9709V12.9698V12.9688V12.9678V12.9667V12.9656V12.9645V12.9634V12.9622V12.9611V12.9599V12.9587V12.9575V12.9563V12.9551V12.9538V12.9526V12.9513V12.95V12.9486V12.9473V12.946V12.9446V12.9432V12.9418V12.9404V12.939V12.9375V12.9361V12.9346V12.9331V12.9316V12.9301V12.9285V12.927V12.9254V12.9238V12.9222V12.9206V12.9189V12.9173V12.9156V12.9139V12.9122V12.9105V12.9088V12.907V12.9053V12.9035V12.9017V12.8999V12.8981V12.8963V12.8944V12.8925V12.8907V12.8888V12.8869V12.8849V12.883V12.881V12.8791V12.8771V12.8751V12.8731V12.871V12.869V12.8669V12.8649V12.8628V12.8607V12.8586V12.8564V12.8543V12.8521V12.85V12.8478V12.8456V12.8434V12.8411V12.8389V12.8366V12.8344V12.8321V12.8298V12.8275V12.8252V12.8228V12.8205V12.8181V12.8157V12.8133V12.8109V12.8085V12.8061V12.8036V12.8011V12.7987V12.7962V12.7937V12.7912V12.7886V12.7861V12.7835V12.781V12.7784V12.7758V12.7732V12.7706V12.7679V12.7653V12.7626V12.7599V12.7573V12.7546V12.7519V12.7491V12.7464V12.7436V12.7409V12.7381V12.7353V12.7325V12.7297V12.7269V12.7241V12.7212V12.7183V12.7155V12.7126V12.7097V12.7068V12.7039V12.7009V12.698V12.695V12.6921V12.6891V12.6861V12.6831V12.6801V12.677V12.674V12.6709V12.6679V12.6648V12.6617V12.6586V12.6555V12.6524V12.6492V12.6461V12.643V12.6398V12.6366V12.6334V12.6302V12.627V12.6238V12.6205V12.6173V12.614V12.6108V12.6075V12.6042V12.6009V12.5976V12.5943V12.5909V12.5876V12.5842V12.5809V12.5775V12.5741V12.5707V12.5673V12.5639V12.5605V12.557V12.5536V12.5501V12.5467V12.5432V12.5397V12.5362V12.5327V12.5292V12.5256V12.5221V12.5185V12.515V12.5114V12.5078V12.5042V12.5006V12.497V12.4934V12.4898V12.4861V12.4825V12.4788V12.4752V12.4715V12.4678V12.4641V12.4604V12.4567V12.453V12.4492V12.4455V12.4417V12.438V12.4342V12.4304V12.4267V12.4229V12.4191V12.4152V12.4114V12.4076V12.4037V12.3999V12.396V12.3922V12.3883V12.3844V12.3805V12.3766V12.3727V12.3688V12.3649V12.3609V12.357V12.353V12.3491V12.3451V12.3411V12.3371V12.3331V12.3291V12.3251V12.3211V12.3171V12.313V12.309V12.305V12.3009V12.2968V12.2928V12.2887V12.2846V12.2805V12.2764V12.2723V12.2682V12.264V12.2599V12.2558V12.2516V12.2475V12.2433V12.2391V12.2349V12.2308V12.2266V12.2224V12.2182V12.2139V12.2097V12.2055V12.2013V12.197V12.1928V12.1885V12.1842V12.18V12.1757V12.1714V12.1671V12.1628V12.1585V12.1542V12.1499V12.1456V12.1413V12.1369V12.1326V12.1282V12.1239V12.1195V12.1152V12.1108V12.1064V12.102V12.0976V12.0932V12.0888V12.0844V12.08V12.0756V12.0712V12.0667V12.0623V12.0578V12.0534V12.0489V12.0445V12.04V12.0355V12.0311V12.0266V12.0221V12.0176V12.0131V12.0086V12.0041V11.9996V11.995V11.9905V11.986V11.9815V11.9769V11.9724V11.9678V11.9633V11.9587V11.9541V11.9496V11.945V11.9404V11.9358V11.9312V11.9266V11.922V11.9174V11.9128V11.9082V11.9036V11.899V11.8944V11.8897V11.8851V11.8805V11.8758V11.8712V11.8665V11.8619V11.8572V11.8525V11.8479V11.8432V11.8385V11.8338V11.8292V11.8245V11.8198V11.8151V11.8104V11.8057V11.801V11.7963V11.7916V11.7868V11.7821V11.7774V11.7727V11.7679V11.7632V11.7585V11.7537V11.749V11.7442V11.7395V11.7347V11.73V11.7252V11.7205V11.7157V11.7109V11.7062V11.7014V11.6966V11.6918V11.687V11.6823V11.6775V11.6727V11.6679V11.6631V11.6583V11.6535V11.6487V11.6439V11.6391V11.6343V11.6295V11.6246V11.6198V11.615V11.6102V11.6054V11.6005V11.5957V11.5909V11.586V11.5812V11.5764V11.5715V11.5667V11.5619V11.557V11.5522V11.5473V11.5425V11.5376V11.5328V11.5279V11.5231V11.5182V11.5134V11.5085V11.5036V11.4988V11.4939V11.4891V11.4842V11.4793V11.4745V11.4696V11.4647V11.4599V11.455V11.4501V11.4452V11.4404V11.4355V11.4306V11.4257V11.4209V11.416V11.4111V11.4062V11.4014V11.3965V11.3916V11.3867V11.3818V11.3769V11.3721V11.3672V11.3623V11.3574V11.3525V11.3477V11.3428V11.3379V11.333C0.333496 10.507 1.02635 9.92254 1.75625 9.58278C2.5391 9.21837 3.61794 8.99967 4.90654 8.99967C6.19515 8.99967 7.27399 9.21837 8.05684 9.58278C8.78673 9.92254 9.47958 10.507 9.47958 11.333L9.47958 12.6351V12.915V12.9793V12.9947V12.9984V12.9994C9.47958 13.3676 9.18111 13.6663 8.81292 13.6663C8.44473 13.6663 8.14625 13.3679 8.14625 12.9997V12.9984V12.9947V12.9793V12.915V12.6351L8.14625 11.333C8.14625 11.3257 8.10693 11.0768 7.49416 10.7916C6.93433 10.531 6.05998 10.333 4.90654 10.333C3.7531 10.333 2.87875 10.531 2.31892 10.7916ZM9.48151 1.92114C9.48151 1.55295 9.77999 1.25448 10.1482 1.25448C11.9891 1.25448 13.4815 2.74686 13.4815 4.58781C13.4815 6.42876 11.9891 7.92114 10.1482 7.92114C9.77999 7.92114 9.48151 7.62267 9.48151 7.25448C9.48151 6.88629 9.77999 6.58781 10.1482 6.58781C11.2528 6.58781 12.1482 5.69238 12.1482 4.58781C12.1482 3.48324 11.2528 2.58781 10.1482 2.58781C9.77999 2.58781 9.48151 2.28933 9.48151 1.92114ZM9.87626 9.72074C9.87626 9.35255 9.96531 8.99967 10.3335 8.99967C11.4585 8.99967 12.2953 9.31424 12.8599 9.81625C13.4184 10.3127 13.6668 10.9568 13.6668 11.5182V11.5247V11.5312V11.5376V11.5441V11.5505V11.557V11.5634V11.5697V11.5761V11.5825V11.5888V11.5951V11.6014V11.6077V11.614V11.6202V11.6264V11.6327V11.6389V11.645V11.6512V11.6573V11.6635V11.6696V11.6757V11.6818V11.6878V11.6939V11.6999V11.706V11.712V11.7179V11.7239V11.7299V11.7358V11.7417V11.7476V11.7535V11.7594V11.7652V11.7711V11.7769V11.7827V11.7885V11.7942V11.8V11.8057V11.8115V11.8172V11.8229V11.8285V11.8342V11.8398V11.8455V11.8511V11.8567V11.8623V11.8678V11.8734V11.8789V11.8844V11.8899V11.8954V11.9009V11.9063V11.9117V11.9172V11.9226V11.928V11.9333V11.9387V11.944V11.9494V11.9547V11.96V11.9652V11.9705V11.9757V11.981V11.9862V11.9914V11.9966V12.0017V12.0069V12.012V12.0171V12.0223V12.0273V12.0324V12.0375V12.0425V12.0475V12.0526V12.0576V12.0625V12.0675V12.0725V12.0774V12.0823V12.0872V12.0921V12.097V12.1018V12.1067V12.1115V12.1163V12.1211V12.1259V12.1307V12.1354V12.1402V12.1449V12.1496V12.1543V12.159V12.1636V12.1683V12.1729V12.1775V12.1821V12.1867V12.1913V12.1959V12.2004V12.2049V12.2094V12.2139V12.2184V12.2229V12.2273V12.2318V12.2362V12.2406V12.245V12.2494V12.2538V12.2581V12.2624V12.2668V12.2711V12.2754V12.2796V12.2839V12.2882V12.2924V12.2966V12.3008V12.305V12.3092V12.3133V12.3175V12.3216V12.3257V12.3298V12.3339V12.338V12.3421V12.3461V12.3501V12.3541V12.3582V12.3621V12.3661V12.3701V12.374V12.3779V12.3819V12.3858V12.3897V12.3935V12.3974V12.4012V12.4051V12.4089V12.4127V12.4165V12.4203V12.424V12.4278V12.4315V12.4352V12.4389V12.4426V12.4463V12.45V12.4536V12.4572V12.4609V12.4645V12.4681V12.4717V12.4752V12.4788V12.4823V12.4858V12.4894V12.4929V12.4963V12.4998V12.5033V12.5067V12.5101V12.5136V12.517V12.5204V12.5237V12.5271V12.5304V12.5338V12.5371V12.5404V12.5437V12.547V12.5502V12.5535V12.5567V12.56V12.5632V12.5664V12.5696V12.5727V12.5759V12.5791V12.5822V12.5853V12.5884V12.5915V12.5946V12.5977V12.6007V12.6038V12.6068V12.6098V12.6128V12.6158V12.6188V12.6217V12.6247V12.6276V12.6306V12.6335V12.6364V12.6393V12.6421V12.645V12.6478V12.6507V12.6535V12.6563V12.6591V12.6619V12.6646V12.6674V12.6701V12.6729V12.6756V12.6783V12.681V12.6837V12.6863V12.689V12.6916V12.6943V12.6969V12.6995V12.7021V12.7047V12.7072V12.7098V12.7123V12.7149V12.7174V12.7199V12.7224V12.7249V12.7273V12.7298V12.7322V12.7347V12.7371V12.7395V12.7419V12.7443V12.7466V12.749V12.7513V12.7537V12.756V12.7583V12.7606V12.7629V12.7651V12.7674V12.7697V12.7719V12.7741V12.7763V12.7785V12.7807V12.7829V12.785V12.7872V12.7893V12.7915V12.7936V12.7957V12.7978V12.7999V12.8019V12.804V12.806V12.8081V12.8101V12.8121V12.8141V12.8161V12.818V12.82V12.822V12.8239V12.8258V12.8277V12.8296V12.8315V12.8334V12.8353V12.8371V12.839V12.8408V12.8426V12.8445V12.8463V12.848V12.8498V12.8516V12.8533V12.8551V12.8568V12.8585V12.8602V12.8619V12.8636V12.8653V12.867V12.8686V12.8703V12.8719V12.8735V12.8751V12.8767V12.8783V12.8799V12.8814V12.883V12.8845V12.886V12.8876V12.8891V12.8906V12.8921V12.8935V12.895V12.8964V12.8979V12.8993V12.9007V12.9021V12.9035V12.9049V12.9063V12.9077V12.909V12.9104V12.9117V12.913V12.9143V12.9156V12.9169V12.9182V12.9195V12.9207V12.922V12.9232V12.9244V12.9257V12.9269V12.9281V12.9292V12.9304V12.9316V12.9327V12.9339V12.935V12.9361V12.9372V12.9383V12.9394V12.9405V12.9416V12.9426V12.9437V12.9447V12.9457V12.9468V12.9478V12.9488V12.9497V12.9507V12.9517V12.9526V12.9536V12.9545V12.9555V12.9564V12.9573V12.9582V12.9591V12.9599V12.9608V12.9616V12.9625V12.9633V12.9642V12.965V12.9658V12.9666V12.9674V12.9681V12.9689V12.9697V12.9704V12.9711V12.9719V12.9726V12.9733V12.974V12.9747V12.9753V12.976V12.9773V12.9786V12.9798V12.981V12.9822V12.9833V12.9844V12.9854V12.9864V12.9874V12.9883V12.9892V12.99V12.9908V12.9916V12.9924V12.9931V12.9937V12.9947V12.9955V12.9963V12.997V12.9978V12.9986V12.9992C13.6668 13.3674 13.3684 13.6663 13.0002 13.6663C12.632 13.6663 12.3335 13.3679 12.3335 12.9997V12.999V12.9983V12.9976V12.9968V12.996V12.9952V12.9944V12.9934V12.9927V12.992V12.9912V12.9904V12.9896V12.9887V12.9878V12.9869V12.9859V12.9849V12.9838V12.9827V12.9816V12.9804V12.9792V12.978V12.9767V12.9753V12.9747V12.974V12.9733V12.9726V12.9719V12.9711V12.9704V12.9697V12.9689V12.9681V12.9674V12.9666V12.9658V12.965V12.9642V12.9633V12.9625V12.9616V12.9608V12.9599V12.9591V12.9582V12.9573V12.9564V12.9555V12.9545V12.9536V12.9526V12.9517V12.9507V12.9497V12.9488V12.9478V12.9468V12.9457V12.9447V12.9437V12.9426V12.9416V12.9405V12.9394V12.9383V12.9372V12.9361V12.935V12.9339V12.9327V12.9316V12.9304V12.9292V12.9281V12.9269V12.9257V12.9244V12.9232V12.922V12.9207V12.9195V12.9182V12.9169V12.9156V12.9143V12.913V12.9117V12.9104V12.909V12.9077V12.9063V12.9049V12.9035V12.9021V12.9007V12.8993V12.8979V12.8964V12.895V12.8935V12.8921V12.8906V12.8891V12.8876V12.886V12.8845V12.883V12.8814V12.8799V12.8783V12.8767V12.8751V12.8735V12.8719V12.8703V12.8686V12.867V12.8653V12.8636V12.8619V12.8602V12.8585V12.8568V12.8551V12.8533V12.8516V12.8498V12.848V12.8463V12.8445V12.8426V12.8408V12.839V12.8371V12.8353V12.8334V12.8315V12.8296V12.8277V12.8258V12.8239V12.822V12.82V12.818V12.8161V12.8141V12.8121V12.8101V12.8081V12.806V12.804V12.8019V12.7999V12.7978V12.7957V12.7936V12.7915V12.7893V12.7872V12.785V12.7829V12.7807V12.7785V12.7763V12.7741V12.7719V12.7697V12.7674V12.7651V12.7629V12.7606V12.7583V12.756V12.7537V12.7513V12.749V12.7466V12.7443V12.7419V12.7395V12.7371V12.7347V12.7322V12.7298V12.7273V12.7249V12.7224V12.7199V12.7174V12.7149V12.7123V12.7098V12.7072V12.7047V12.7021V12.6995V12.6969V12.6943V12.6916V12.689V12.6863V12.6837V12.681V12.6783V12.6756V12.6729V12.6701V12.6674V12.6646V12.6619V12.6591V12.6563V12.6535V12.6507V12.6478V12.645V12.6421V12.6393V12.6364V12.6335V12.6306V12.6276V12.6247V12.6217V12.6188V12.6158V12.6128V12.6098V12.6068V12.6038V12.6007V12.5977V12.5946V12.5915V12.5884V12.5853V12.5822V12.5791V12.5759V12.5727V12.5696V12.5664V12.5632V12.56V12.5567V12.5535V12.5502V12.547V12.5437V12.5404V12.5371V12.5338V12.5304V12.5271V12.5237V12.5204V12.517V12.5136V12.5101V12.5067V12.5033V12.4998V12.4963V12.4929V12.4894V12.4858V12.4823V12.4788V12.4752V12.4717V12.4681V12.4645V12.4609V12.4572V12.4536V12.45V12.4463V12.4426V12.4389V12.4352V12.4315V12.4278V12.424V12.4203V12.4165V12.4127V12.4089V12.4051V12.4012V12.3974V12.3935V12.3897V12.3858V12.3819V12.3779V12.374V12.3701V12.3661V12.3621V12.3582V12.3541V12.3501V12.3461V12.3421V12.338V12.3339V12.3298V12.3257V12.3216V12.3175V12.3133V12.3092V12.305V12.3008V12.2966V12.2924V12.2882V12.2839V12.2796V12.2754V12.2711V12.2668V12.2624V12.2581V12.2538V12.2494V12.245V12.2406V12.2362V12.2318V12.2273V12.2229V12.2184V12.2139V12.2094V12.2049V12.2004V12.1959V12.1913V12.1867V12.1821V12.1775V12.1729V12.1683V12.1636V12.159V12.1543V12.1496V12.1449V12.1402V12.1354V12.1307V12.1259V12.1211V12.1163V12.1115V12.1067V12.1018V12.097V12.0921V12.0872V12.0823V12.0774V12.0725V12.0675V12.0625V12.0576V12.0526V12.0475V12.0425V12.0375V12.0324V12.0273V12.0223V12.0171V12.012V12.0069V12.0017V11.9966V11.9914V11.9862V11.981V11.9757V11.9705V11.9652V11.96V11.9547V11.9494V11.944V11.9387V11.9333V11.928V11.9226V11.9172V11.9117V11.9063V11.9009V11.8954V11.8899V11.8844V11.8789V11.8734V11.8678V11.8623V11.8567V11.8511V11.8455V11.8398V11.8342V11.8285V11.8229V11.8172V11.8115V11.8057V11.8V11.7942V11.7885V11.7827V11.7769V11.7711V11.7652V11.7594V11.7535V11.7476V11.7417V11.7358V11.7299V11.7239V11.7179V11.712V11.706V11.6999V11.6939V11.6878V11.6818V11.6757V11.6696V11.6635V11.6573V11.6512V11.645V11.6389V11.6327V11.6264V11.6202V11.614V11.6077V11.6014V11.5951V11.5888V11.5825V11.5761V11.5697V11.5634V11.557V11.5505V11.5441V11.5376V11.5312V11.5247V11.5182C12.3335 11.3389 12.2488 11.057 11.9741 10.8127C11.7055 10.574 11.209 10.333 10.3335 10.333C9.96531 10.333 9.9693 10.1139 9.87626 9.72074Z" fill="#1A1941"/>
<path d="M7.63562 4.33301C7.63562 5.80577 6.44172 6.99967 4.96896 6.99967C3.4962 6.99967 2.30229 5.80577 2.30229 4.33301C2.30229 2.86025 3.4962 1.66634 4.96896 1.66634C6.44172 1.66634 7.63562 2.86025 7.63562 4.33301Z" fill="#1A1941"/>
<path d="M2.31892 10.7916C1.70614 11.0768 1.66683 11.3257 1.66683 11.333V11.3379V11.3428V11.3477V11.3525V11.3574V11.3623V11.3672V11.3721V11.3769V11.3818V11.3867V11.3916V11.3965V11.4014V11.4062V11.4111V11.416V11.4209V11.4257V11.4306V11.4355V11.4404V11.4452V11.4501V11.455V11.4599V11.4647V11.4696V11.4745V11.4793V11.4842V11.4891V11.4939V11.4988V11.5036V11.5085V11.5134V11.5182V11.5231V11.5279V11.5328V11.5376V11.5425V11.5473V11.5522V11.557V11.5619V11.5667V11.5715V11.5764V11.5812V11.586V11.5909V11.5957V11.6005V11.6054V11.6102V11.615V11.6198V11.6246V11.6295V11.6343V11.6391V11.6439V11.6487V11.6535V11.6583V11.6631V11.6679V11.6727V11.6775V11.6823V11.687V11.6918V11.6966V11.7014V11.7062V11.7109V11.7157V11.7205V11.7252V11.73V11.7347V11.7395V11.7442V11.749V11.7537V11.7585V11.7632V11.7679V11.7727V11.7774V11.7821V11.7868V11.7916V11.7963V11.801V11.8057V11.8104V11.8151V11.8198V11.8245V11.8292V11.8338V11.8385V11.8432V11.8479V11.8525V11.8572V11.8619V11.8665V11.8712V11.8758V11.8805V11.8851V11.8897V11.8944V11.899V11.9036V11.9082V11.9128V11.9174V11.922V11.9266V11.9312V11.9358V11.9404V11.945V11.9496V11.9541V11.9587V11.9633V11.9678V11.9724V11.9769V11.9815V11.986V11.9905V11.995V11.9996V12.0041V12.0086V12.0131V12.0176V12.0221V12.0266V12.0311V12.0355V12.04V12.0445V12.0489V12.0534V12.0578V12.0623V12.0667V12.0712V12.0756V12.08V12.0844V12.0888V12.0932V12.0976V12.102V12.1064V12.1108V12.1152V12.1195V12.1239V12.1282V12.1326V12.1369V12.1413V12.1456V12.1499V12.1542V12.1585V12.1628V12.1671V12.1714V12.1757V12.18V12.1842V12.1885V12.1928V12.197V12.2013V12.2055V12.2097V12.2139V12.2182V12.2224V12.2266V12.2308V12.2349V12.2391V12.2433V12.2475V12.2516V12.2558V12.2599V12.264V12.2682V12.2723V12.2764V12.2805V12.2846V12.2887V12.2928V12.2968V12.3009V12.305V12.309V12.313V12.3171V12.3211V12.3251V12.3291V12.3331V12.3371V12.3411V12.3451V12.3491V12.353V12.357V12.3609V12.3649V12.3688V12.3727V12.3766V12.3805V12.3844V12.3883V12.3922V12.396V12.3999V12.4037V12.4076V12.4114V12.4152V12.4191V12.4229V12.4267V12.4304V12.4342V12.438V12.4417V12.4455V12.4492V12.453V12.4567V12.4604V12.4641V12.4678V12.4715V12.4752V12.4788V12.4825V12.4861V12.4898V12.4934V12.497V12.5006V12.5042V12.5078V12.5114V12.515V12.5185V12.5221V12.5256V12.5292V12.5327V12.5362V12.5397V12.5432V12.5467V12.5501V12.5536V12.557V12.5605V12.5639V12.5673V12.5707V12.5741V12.5775V12.5809V12.5842V12.5876V12.5909V12.5943V12.5976V12.6009V12.6042V12.6075V12.6108V12.614V12.6173V12.6205V12.6238V12.627V12.6302V12.6334V12.6366V12.6398V12.643V12.6461V12.6492V12.6524V12.6555V12.6586V12.6617V12.6648V12.6679V12.6709V12.674V12.677V12.6801V12.6831V12.6861V12.6891V12.6921V12.695V12.698V12.7009V12.7039V12.7068V12.7097V12.7126V12.7155V12.7183V12.7212V12.7241V12.7269V12.7297V12.7325V12.7353V12.7381V12.7409V12.7436V12.7464V12.7491V12.7519V12.7546V12.7573V12.7599V12.7626V12.7653V12.7679V12.7706V12.7732V12.7758V12.7784V12.781V12.7835V12.7861V12.7886V12.7912V12.7937V12.7962V12.7987V12.8011V12.8036V12.8061V12.8085V12.8109V12.8133V12.8157V12.8181V12.8205V12.8228V12.8252V12.8275V12.8298V12.8321V12.8344V12.8366V12.8389V12.8411V12.8434V12.8456V12.8478V12.85V12.8521V12.8543V12.8564V12.8586V12.8607V12.8628V12.8649V12.8669V12.869V12.871V12.8731V12.8751V12.8771V12.8791V12.881V12.883V12.8849V12.8869V12.8888V12.8907V12.8925V12.8944V12.8963V12.8981V12.8999V12.9017V12.9035V12.9053V12.907V12.9088V12.9105V12.9122V12.9139V12.9156V12.9173V12.9189V12.9206V12.9222V12.9238V12.9254V12.927V12.9285V12.9301V12.9316V12.9331V12.9346V12.9361V12.9375V12.939V12.9404V12.9418V12.9432V12.9446V12.946V12.9473V12.9486V12.95V12.9513V12.9526V12.9538V12.9551V12.9563V12.9575V12.9587V12.9599V12.9611V12.9622V12.9634V12.9645V12.9656V12.9667V12.9678V12.9688V12.9698V12.9709V12.9719V12.9728V12.9738V12.9748V12.9757V12.9766V12.9775V12.9784V12.9793V12.9801V12.9809V12.9817V12.9825V12.9833V12.9841V12.9848V12.9855V12.9862V12.9869V12.9876V12.9889V12.9901V12.9913V12.9923V12.9933V12.9943V12.9951V12.9959V12.9966V12.9976V12.9983V12.9991C1.66683 13.3673 1.36835 13.6663 1.00016 13.6663H8.81292C8.44473 13.6663 8.14625 13.3679 8.14625 12.9997V12.9984V12.9947V12.9793V12.915V12.6351L8.14625 11.333C8.14625 11.3257 8.10693 11.0768 7.49416 10.7916C6.93433 10.531 6.05998 10.333 4.90654 10.333C3.7531 10.333 2.87875 10.531 2.31892 10.7916Z" fill="#1A1941"/>
<path d="M9.48151 7.25448C9.48151 6.88629 9.77999 6.58781 10.1482 6.58781C11.2528 6.58781 12.1482 5.69238 12.1482 4.58781C12.1482 3.48324 11.2528 2.58781 10.1482 2.58781C9.77999 2.58781 9.48151 2.28933 9.48151 1.92114C9.48151 1.92114 9.91555 3.53271 9.91555 4.58781C9.91555 5.64291 9.48151 7.25448 9.48151 7.25448Z" fill="#1A1941"/>
<path d="M13.0002 13.6663C12.632 13.6663 12.3335 13.3679 12.3335 12.9997V12.999V12.9983V12.9976V12.9968V12.996V12.9952V12.9944V12.9934V12.9927V12.992V12.9912V12.9904V12.9896V12.9887V12.9878V12.9869V12.9859V12.9849V12.9838V12.9827V12.9816V12.9804V12.9792V12.978V12.9767V12.9753V12.9747V12.974V12.9733V12.9726V12.9719V12.9711V12.9704V12.9697V12.9689V12.9681V12.9674V12.9666V12.9658V12.965V12.9642V12.9633V12.9625V12.9616V12.9608V12.9599V12.9591V12.9582V12.9573V12.9564V12.9555V12.9545V12.9536V12.9526V12.9517V12.9507V12.9497V12.9488V12.9478V12.9468V12.9457V12.9447V12.9437V12.9426V12.9416V12.9405V12.9394V12.9383V12.9372V12.9361V12.935V12.9339V12.9327V12.9316V12.9304V12.9292V12.9281V12.9269V12.9257V12.9244V12.9232V12.922V12.9207V12.9195V12.9182V12.9169V12.9156V12.9143V12.913V12.9117V12.9104V12.909V12.9077V12.9063V12.9049V12.9035V12.9021V12.9007V12.8993V12.8979V12.8964V12.895V12.8935V12.8921V12.8906V12.8891V12.8876V12.886V12.8845V12.883V12.8814V12.8799V12.8783V12.8767V12.8751V12.8735V12.8719V12.8703V12.8686V12.867V12.8653V12.8636V12.8619V12.8602V12.8585V12.8568V12.8551V12.8533V12.8516V12.8498V12.848V12.8463V12.8445V12.8426V12.8408V12.839V12.8371V12.8353V12.8334V12.8315V12.8296V12.8277V12.8258V12.8239V12.822V12.82V12.818V12.8161V12.8141V12.8121V12.8101V12.8081V12.806V12.804V12.8019V12.7999V12.7978V12.7957V12.7936V12.7915V12.7893V12.7872V12.785V12.7829V12.7807V12.7785V12.7763V12.7741V12.7719V12.7697V12.7674V12.7651V12.7629V12.7606V12.7583V12.756V12.7537V12.7513V12.749V12.7466V12.7443V12.7419V12.7395V12.7371V12.7347V12.7322V12.7298V12.7273V12.7249V12.7224V12.7199V12.7174V12.7149V12.7123V12.7098V12.7072V12.7047V12.7021V12.6995V12.6969V12.6943V12.6916V12.689V12.6863V12.6837V12.681V12.6783V12.6756V12.6729V12.6701V12.6674V12.6646V12.6619V12.6591V12.6563V12.6535V12.6507V12.6478V12.645V12.6421V12.6393V12.6364V12.6335V12.6306V12.6276V12.6247V12.6217V12.6188V12.6158V12.6128V12.6098V12.6068V12.6038V12.6007V12.5977V12.5946V12.5915V12.5884V12.5853V12.5822V12.5791V12.5759V12.5727V12.5696V12.5664V12.5632V12.56V12.5567V12.5535V12.5502V12.547V12.5437V12.5404V12.5371V12.5338V12.5304V12.5271V12.5237V12.5204V12.517V12.5136V12.5101V12.5067V12.5033V12.4998V12.4963V12.4929V12.4894V12.4858V12.4823V12.4788V12.4752V12.4717V12.4681V12.4645V12.4609V12.4572V12.4536V12.45V12.4463V12.4426V12.4389V12.4352V12.4315V12.4278V12.424V12.4203V12.4165V12.4127V12.4089V12.4051V12.4012V12.3974V12.3935V12.3897V12.3858V12.3819V12.3779V12.374V12.3701V12.3661V12.3621V12.3582V12.3541V12.3501V12.3461V12.3421V12.338V12.3339V12.3298V12.3257V12.3216V12.3175V12.3133V12.3092V12.305V12.3008V12.2966V12.2924V12.2882V12.2839V12.2796V12.2754V12.2711V12.2668V12.2624V12.2581V12.2538V12.2494V12.245V12.2406V12.2362V12.2318V12.2273V12.2229V12.2184V12.2139V12.2094V12.2049V12.2004V12.1959V12.1913V12.1867V12.1821V12.1775V12.1729V12.1683V12.1636V12.159V12.1543V12.1496V12.1449V12.1402V12.1354V12.1307V12.1259V12.1211V12.1163V12.1115V12.1067V12.1018V12.097V12.0921V12.0872V12.0823V12.0774V12.0725V12.0675V12.0625V12.0576V12.0526V12.0475V12.0425V12.0375V12.0324V12.0273V12.0223V12.0171V12.012V12.0069V12.0017V11.9966V11.9914V11.9862V11.981V11.9757V11.9705V11.9652V11.96V11.9547V11.9494V11.944V11.9387V11.9333V11.928V11.9226V11.9172V11.9117V11.9063V11.9009V11.8954V11.8899V11.8844V11.8789V11.8734V11.8678V11.8623V11.8567V11.8511V11.8455V11.8398V11.8342V11.8285V11.8229V11.8172V11.8115V11.8057V11.8V11.7942V11.7885V11.7827V11.7769V11.7711V11.7652V11.7594V11.7535V11.7476V11.7417V11.7358V11.7299V11.7239V11.7179V11.712V11.706V11.6999V11.6939V11.6878V11.6818V11.6757V11.6696V11.6635V11.6573V11.6512V11.645V11.6389V11.6327V11.6264V11.6202V11.614V11.6077V11.6014V11.5951V11.5888V11.5825V11.5761V11.5697V11.5634V11.557V11.5505V11.5441V11.5376V11.5312V11.5247V11.5182C12.3335 11.3389 12.2488 11.057 11.9741 10.8127C11.7055 10.574 11.209 10.333 10.3335 10.333C9.96531 10.333 9.9693 10.1139 9.87626 9.72074C9.89093 9.94264 10.088 10.7875 10.1684 11.5441C10.1684 12.5453 10.13 13.6663 10.13 13.6663H13.0002Z" fill="#1A1941"/>
</svg>
