<svg width="14" height="14" viewBox="0 0 14 14" fill="none" xmlns="http://www.w3.org/2000/svg">
<path fill-rule="evenodd" clip-rule="evenodd" d="M0.333328 1.66683C0.333328 0.93045 0.930282 0.333496 1.66666 0.333496H12.3333C13.0697 0.333496 13.6667 0.930449 13.6667 1.66683V4.3335V5.00016H13H0.999995H0.333328V4.3335V1.66683ZM12.3333 1.66683H1.66666V3.66683H12.3333V1.66683ZM0.333328 6.3335H0.999995H4.33333H5V7.00016V13.0002V13.6668H4.33333H1.66666C0.930282 13.6668 0.333328 13.0699 0.333328 12.3335V7.00016V6.3335ZM1.66666 7.66683V12.3335H3.66666V7.66683H1.66666ZM7 6.3335H6.33333V7.00016V13.0002V13.6668H7H12.3333C13.0697 13.6668 13.6667 13.0699 13.6667 12.3335V7.00016V6.3335H13H7ZM7.66666 12.3335V7.66683H12.3333V12.3335H7.66666Z" fill="#8B8B8B"/>
</svg>
