<svg width="14" height="14" viewBox="0 0 14 14" fill="none" xmlns="http://www.w3.org/2000/svg">
<path fill-rule="evenodd" clip-rule="evenodd" d="M6.34572 0.333008C5.60934 0.333008 5.01238 0.929962 5.01238 1.66634V2.30203L4.9535 2.33147L4.47889 1.85686C3.95819 1.33616 3.11397 1.33616 2.59327 1.85686L1.82171 2.62843C1.30101 3.14913 1.30101 3.99335 1.82171 4.51405L2.29631 4.98866L2.26687 5.04754H1.63118C0.894805 5.04754 0.297852 5.6445 0.297852 6.38087V7.61911C0.297852 8.35548 0.894805 8.95244 1.63118 8.95244H2.26687L2.29631 9.01132L1.82171 9.48593C1.30101 10.0066 1.30101 10.8509 1.82171 11.3716L2.59327 12.1431C3.11397 12.6638 3.95819 12.6638 4.47889 12.1431L4.9535 11.6685L5.01238 11.698V12.3336C5.01238 13.07 5.60934 13.667 6.34572 13.667H7.58395C8.32033 13.667 8.91728 13.07 8.91728 12.3336V11.698L8.97617 11.6685L9.45078 12.1431C9.97147 12.6638 10.8157 12.6638 11.3364 12.1431L12.108 11.3716C12.6287 10.8509 12.6287 10.0066 12.108 9.48593L11.6334 9.01132L11.6628 8.95244H12.2985C13.0349 8.95244 13.6318 8.35548 13.6318 7.61911V6.38087C13.6318 5.6445 13.0349 5.04754 12.2985 5.04754H11.6628L11.6334 4.98866L12.108 4.51405C12.6287 3.99335 12.6287 3.14913 12.108 2.62843L11.3364 1.85686C10.8157 1.33616 9.97147 1.33616 9.45078 1.85686L8.97617 2.33147L8.91728 2.30203V1.66634C8.91728 0.929962 8.32033 0.333008 7.58395 0.333008H6.34572ZM6.34572 1.66634H7.58395V2.30203C7.58395 2.80706 7.86928 3.26874 8.321 3.4946L8.37988 3.52404C8.8932 3.7807 9.51316 3.68009 9.91898 3.27428L10.3936 2.79967L11.1652 3.57124L10.6905 4.04585C10.2847 4.45166 10.1841 5.07162 10.4408 5.58494L10.4702 5.64383C10.6961 6.09554 11.1578 6.38087 11.6628 6.38087H12.2985V7.61911H11.6628C11.1578 7.61911 10.6961 7.90444 10.4702 8.35615L10.4408 8.41504C10.1841 8.92836 10.2847 9.54832 10.6905 9.95413L11.1652 10.4287L10.3936 11.2003L9.91898 10.7257C9.51316 10.3199 8.8932 10.2193 8.37988 10.4759L8.321 10.5054C7.86929 10.7312 7.58395 11.1929 7.58395 11.698V12.3336H6.34572V11.698C6.34572 11.1929 6.06038 10.7312 5.60867 10.5054L5.54978 10.4759C5.03647 10.2193 4.4165 10.3199 4.01069 10.7257L3.53608 11.2003L2.76452 10.4287L3.23912 9.95413C3.64494 9.54832 3.74554 8.92836 3.48888 8.41504L3.45944 8.35615C3.23358 7.90444 2.7719 7.61911 2.26687 7.61911H1.63118V6.38087H2.26687C2.7719 6.38087 3.23358 6.09554 3.45944 5.64383L3.48888 5.58494C3.74554 5.07162 3.64494 4.45166 3.23912 4.04585L2.76451 3.57124L3.53608 2.79967L4.01069 3.27428C4.4165 3.68009 5.03646 3.7807 5.54978 3.52404L5.60867 3.4946C6.06038 3.26874 6.34572 2.80706 6.34572 2.30203V1.66634ZM5.91712 6.99971C5.91712 6.42122 6.38609 5.95226 6.96458 5.95226C7.54308 5.95226 8.01204 6.42122 8.01204 6.99971C8.01204 7.57821 7.54308 8.04717 6.96458 8.04717C6.38609 8.04717 5.91712 7.57821 5.91712 6.99971ZM6.96458 4.61892C5.64971 4.61892 4.58379 5.68484 4.58379 6.99971C4.58379 8.31459 5.64971 9.38051 6.96458 9.38051C8.27946 9.38051 9.34537 8.31459 9.34537 6.99971C9.34537 5.68484 8.27946 4.61892 6.96458 4.61892Z" fill="#8B8B8B"/>
</svg>
