<svg width="108" height="81" viewBox="0 0 108 81" fill="none" xmlns="http://www.w3.org/2000/svg">
<path d="M107.257 16.4198L98.017 73.5398C97.7768 75.3394 96.0969 76.5398 94.2973 76.1798L88.6573 75.2197V71.9794L91.6573 72.4591C93.4569 72.6993 95.1368 71.499 95.377 69.8191L103.537 19.1791C103.777 17.3794 102.577 15.6995 100.897 15.4593L28.4166 3.81928C26.617 3.57905 24.9371 4.77939 24.6968 6.45928L23.4965 14.1393H20.2563L22.0559 2.7395C22.2962 0.939841 23.9761 -0.260501 25.7757 0.0994986L104.616 12.8193C106.416 13.0604 107.617 14.7403 107.257 16.4204L107.257 16.4198ZM87.0968 18.9402C87.0968 17.1405 85.6571 15.7 83.8566 15.7H3.93662C2.13697 15.7 0.696411 17.1397 0.696411 18.9402V76.7802C0.696411 78.5798 2.13615 80.0204 3.93662 80.0204H83.8566C85.6563 80.0204 87.0968 78.5807 87.0968 76.7802V18.9402ZM3.93684 22.1795C3.93684 20.3799 5.37658 18.9393 7.17705 18.9393H80.6171C82.4167 18.9393 83.8573 20.3791 83.8573 22.1795V73.5396C83.8573 75.3392 82.4175 76.7798 80.6171 76.7798H7.17705C5.3774 76.7798 3.93684 75.34 3.93684 73.5396V22.1795ZM85.4168 57.5795L66.5773 38.7391C64.8973 37.0592 62.6173 36.0991 60.3371 36.0991C58.0568 36.0991 55.7768 37.0592 54.0968 38.7391L14.4968 78.3391H85.4168V57.5795ZM27.5768 60.6993L17.1362 50.2595C14.6158 47.7391 10.4164 47.7391 7.7762 50.2595L2.37641 55.6593V78.3393H9.93663L27.5768 60.6993ZM20.8571 40.4191C25.0575 40.4191 28.4173 37.0591 28.4173 32.8589C28.4173 28.6585 25.0573 25.2987 20.8571 25.2987C16.6566 25.2987 13.2968 28.6587 13.2968 32.8589C13.2968 37.0593 16.6568 40.4191 20.8571 40.4191Z" fill="#EE2339"/>
</svg>
