<svg width="125" height="32" viewBox="0 0 125 32" fill="none" xmlns="http://www.w3.org/2000/svg">
<path d="M99.5291 -1.80703e-05H6.47452C6.22551 -1.80703e-05 5.97949 -1.80702e-05 5.73114 0.00158193C5.52325 0.00318193 5.31702 0.00782993 5.10713 0.0117419C4.65116 0.0180634 4.19626 0.0653229 3.74638 0.15311C3.29714 0.242808 2.86197 0.411915 2.45559 0.65471C2.04971 0.899559 1.67884 1.21772 1.35645 1.59764C1.03236 1.97649 0.762208 2.4144 0.556379 2.89451C0.349982 3.37367 0.206866 3.88713 0.131973 4.41717C0.0563685 4.94653 0.0156849 5.482 0.0102876 6.01877C0.00398602 6.26405 0.00332055 6.51014 0 6.75545V25.2469C0.00332055 25.4953 0.00398602 25.7359 0.0102808 25.9844C0.0156798 26.5211 0.0563634 27.0566 0.131967 27.5859C0.206652 28.1162 0.349777 28.63 0.556373 29.1093C0.76211 29.5879 1.0323 30.024 1.35645 30.4008C1.67762 30.7824 2.04873 31.1008 2.45559 31.3437C2.86197 31.5872 3.29709 31.7573 3.74638 31.8484C4.19634 31.9355 4.65119 31.9827 5.10713 31.9898C5.31702 31.9953 5.52325 31.9984 5.73114 31.9984C5.97949 32 6.22553 32 6.47452 32H99.5291C99.7732 32 100.021 32 100.265 31.9984C100.472 31.9984 100.684 31.9953 100.891 31.9898C101.346 31.9831 101.8 31.9358 102.249 31.8484C102.7 31.7567 103.137 31.5866 103.545 31.3437C103.952 31.1006 104.322 30.7823 104.643 30.4008C104.967 30.0226 105.237 29.5867 105.446 29.1093C105.651 28.6297 105.792 28.1159 105.866 27.5859C105.942 27.0565 105.984 26.5212 105.992 25.9844C105.995 25.7359 105.995 25.4953 105.995 25.2469C106 24.9562 106 24.6672 106 24.3718V7.62889C106 7.33592 106 7.04529 105.995 6.75545C105.995 6.51014 105.995 6.26405 105.992 6.01873C105.984 5.48192 105.942 4.94657 105.866 4.41713C105.792 3.88741 105.65 3.37398 105.446 2.89448C105.026 1.93214 104.362 1.1488 103.545 0.654638C103.137 0.412436 102.7 0.243374 102.249 0.153038C101.8 0.0648642 101.346 0.0175881 100.891 0.0116299C100.684 0.00772593 100.472 0.00303793 100.265 0.00147793C100.021 -0.00012207 99.7732 -0.00012207 99.5291 -0.00012207V-1.80703e-05Z" fill="#A6A6A6"/>
<path d="M5.73445 31.3C5.52755 31.3 5.32562 31.2968 5.12039 31.2914C4.69515 31.2849 4.27091 31.2413 3.85115 31.1609C3.45974 31.0815 3.08057 30.9338 2.72614 30.7226C2.37496 30.5132 2.05466 30.2386 1.77751 29.9093C1.49634 29.5839 1.26226 29.2065 1.08453 28.7921C0.904847 28.375 0.780495 27.9279 0.715807 27.4664C0.645949 26.9704 0.608153 26.469 0.602745 25.9664C0.59844 25.7976 0.592804 25.2359 0.592804 25.2359V6.75542C0.592804 6.75542 0.598807 6.2023 0.602779 6.03979C0.607957 5.53794 0.645533 5.03727 0.715182 4.54214C0.77999 4.07935 0.904438 3.63095 1.08422 3.21246C1.26129 2.79831 1.49408 2.42064 1.77355 2.0941C2.05271 1.76445 2.37403 1.48843 2.72581 1.27612C3.07942 1.06563 3.45787 0.918937 3.84849 0.840967C4.26964 0.75982 4.69535 0.715948 5.12206 0.709719L5.73478 0.699951H100.262L100.882 0.710111C101.305 0.716031 101.727 0.759511 102.144 0.840183C102.538 0.919131 102.921 1.06684 103.278 1.27846C103.983 1.70634 104.557 2.38328 104.918 3.21441C105.095 3.63001 105.218 4.07476 105.282 4.53354C105.352 5.03274 105.392 5.53734 105.4 6.04331C105.402 6.26987 105.402 6.51323 105.402 6.75542C105.407 7.05542 105.407 7.34097 105.407 7.62886V24.3718C105.407 24.6624 105.407 24.946 105.402 25.232C105.402 25.4921 105.402 25.7304 105.399 25.9757C105.391 26.4727 105.352 26.9682 105.283 27.4585C105.22 27.9234 105.096 28.374 104.916 28.7945C104.737 29.2044 104.505 29.5786 104.227 29.9031C103.949 30.2341 103.629 30.5103 103.277 30.7211C102.92 30.9339 102.538 31.0821 102.144 31.1609C101.724 31.2417 101.3 31.2853 100.875 31.2914C100.676 31.2968 100.467 31.3 100.265 31.3L99.5291 31.3016L5.73445 31.3Z" fill="black"/>
<path d="M19.7204 16.2405C19.7378 14.8834 20.446 13.6297 21.5967 12.9189C20.8674 11.8724 19.6898 11.2327 18.419 11.1928C17.082 11.0517 15.7859 11.9966 15.1046 11.9966C14.4101 11.9966 13.3612 11.2068 12.2316 11.2301C10.7454 11.2784 9.39342 12.1068 8.67035 13.4124C7.13054 16.0911 8.2791 20.028 9.75411 22.1933C10.4921 23.2535 11.3546 24.4379 12.4831 24.3959C13.5875 24.3499 13.9999 23.6883 15.333 23.6883C16.6536 23.6883 17.0406 24.3959 18.192 24.3692C19.377 24.3499 20.1237 23.3042 20.8358 22.2339C21.366 21.4784 21.774 20.6434 22.0447 19.7599C20.6372 19.1617 19.7221 17.776 19.7204 16.2405Z" fill="white"/>
<path d="M17.5456 9.76869C18.1917 8.98933 18.51 7.98758 18.4329 6.9762C17.4458 7.08037 16.534 7.55442 15.8791 8.30388C15.2325 9.04333 14.9049 10.0107 14.9685 10.993C15.9689 11.0033 16.9187 10.5521 17.5456 9.76869Z" fill="white"/>
<path fill-rule="evenodd" clip-rule="evenodd" d="M30.5013 21.7117H34.2699L35.1741 24.3969H36.7976L33.228 14.4625H31.5696L28 24.3969H29.5962L30.5013 21.7117ZM33.8789 20.4726H30.8916L32.365 16.1148H32.4062L33.8789 20.4726Z" fill="white"/>
<path fill-rule="evenodd" clip-rule="evenodd" d="M41.4985 24.4726C43.3078 24.4726 44.5067 23.0265 44.5067 20.7757C44.5067 18.5312 43.3008 17.0781 41.4713 17.0781C40.5299 17.0476 39.648 17.5395 39.176 18.3585H39.1488V17.1538H37.7166V26.7929H39.1962V23.2054H39.2305C39.6824 24.0296 40.5633 24.5218 41.4985 24.4726ZM41.081 18.3453C42.2317 18.3453 42.9859 19.3093 42.9859 20.7757C42.9859 22.2554 42.2317 23.2124 41.081 23.2124C39.9505 23.2124 39.19 22.2351 39.19 20.7757C39.19 19.3296 39.9505 18.3453 41.081 18.3453Z" fill="white"/>
<path fill-rule="evenodd" clip-rule="evenodd" d="M49.4323 24.4726C51.2416 24.4726 52.4405 23.0265 52.4405 20.7757C52.4405 18.5312 51.2346 17.0781 49.405 17.0781C48.4636 17.0476 47.5818 17.5395 47.1098 18.3585H47.0826V17.1538H45.6504V26.7929H47.13V23.2054H47.1643C47.6162 24.0296 48.4971 24.5218 49.4323 24.4726ZM49.0147 18.3453C50.1655 18.3453 50.9197 19.3093 50.9197 20.7757H50.9197C50.9197 22.2554 50.1655 23.2124 49.0147 23.2124C47.8842 23.2124 47.1238 22.2351 47.1238 20.7757C47.1238 19.3296 47.8842 18.3453 49.0147 18.3453Z" fill="white"/>
<path d="M57.6841 21.6289C57.7937 22.614 58.7462 23.2609 60.0477 23.2609C61.2949 23.2609 62.1921 22.614 62.1921 21.7257C62.1921 20.9546 61.651 20.4929 60.3696 20.1765L59.0883 19.8664C57.2728 19.4257 56.4299 18.5726 56.4299 17.1882C56.4299 15.4742 57.9166 14.2968 60.0275 14.2968C62.1167 14.2968 63.5489 15.4742 63.5971 17.1882H62.1035C62.0141 16.1968 61.1984 15.5984 60.0065 15.5984C58.8146 15.5984 57.9989 16.2039 57.9989 17.0851C57.9989 17.7874 58.5199 18.2007 59.7942 18.5171L60.8835 18.7859C62.9121 19.2679 63.7549 20.0867 63.7549 21.5398C63.7549 23.3983 62.2815 24.5624 59.9381 24.5624C57.7455 24.5624 56.2651 23.4257 56.1694 21.6288L57.6841 21.6289Z" fill="white"/>
<path d="M66.9482 15.4399V17.1539H68.319V18.3313H66.9482V22.3243C66.9482 22.9446 67.2227 23.2336 67.8252 23.2336C67.988 23.2308 68.1504 23.2193 68.312 23.1992V24.3695C68.041 24.4204 67.7657 24.4434 67.4901 24.4383C66.0307 24.4383 65.4616 23.8875 65.4616 22.4828V18.3313H64.4135V17.1539H65.4616V15.4399H66.9482Z" fill="white"/>
<path fill-rule="evenodd" clip-rule="evenodd" d="M72.5308 17.0649C70.4478 17.0649 69.112 18.4969 69.112 20.7758C69.112 23.061 70.4346 24.4868 72.5308 24.4868C74.6277 24.4868 75.9503 23.061 75.9503 20.7758C75.9503 18.4969 74.6207 17.0649 72.5308 17.0649ZM72.5308 18.2899C73.7297 18.2899 74.4427 19.2125 74.4427 20.7758H74.4427C74.4427 22.3453 73.7297 23.261 72.5308 23.261C71.3318 23.261 70.6189 22.3453 70.6189 20.7758C70.6189 19.2196 71.3318 18.2899 72.5308 18.2899Z" fill="white"/>
<path d="M77.171 17.1539H78.5822V18.3867H78.6164C78.8132 17.5931 79.5369 17.0469 80.3503 17.0781C80.5208 17.0775 80.6909 17.0961 80.8572 17.1336V18.5242C80.642 18.4581 80.4174 18.4278 80.1924 18.4344C79.7574 18.4166 79.3365 18.5908 79.04 18.9112C78.7436 19.2316 78.6014 19.6661 78.6506 20.1008V24.3969H77.171L77.171 17.1539Z" fill="white"/>
<path fill-rule="evenodd" clip-rule="evenodd" d="M84.5745 24.4868C86.205 24.4868 87.4793 23.5844 87.6784 22.2696L86.2734 22.2696C86.0037 22.9416 85.3268 23.3559 84.6087 23.2883C84.0704 23.3082 83.5494 23.0948 83.1784 22.7023C82.8074 22.3097 82.6221 21.776 82.6696 21.2368V21.1469H87.7608V20.6375C87.7608 18.4414 86.5067 17.0649 84.5123 17.0649C82.4846 17.0649 81.176 18.5383 81.176 20.8102C81.176 23.075 82.4776 24.4868 84.5745 24.4868ZM82.6766 20.1078H82.6766L82.6766 20.1079C82.6766 20.1079 82.6766 20.1079 82.6766 20.1078ZM86.2804 20.1078H82.6766C82.6754 19.6188 82.8686 19.1496 83.2133 18.8044C83.558 18.4592 84.0257 18.2667 84.5123 18.2696C84.9952 18.2591 85.4605 18.4516 85.7961 18.8005C86.1317 19.1495 86.3072 19.6233 86.2804 20.1078Z" fill="white"/>
<path fill-rule="evenodd" clip-rule="evenodd" d="M31.3924 7.63909C30.9594 7.17963 30.3441 6.9395 29.716 6.98479H28V11.7583H29.716C31.1311 11.7583 31.9513 10.8817 31.9513 9.35667C32.0305 8.72891 31.8254 8.09855 31.3924 7.63909ZM29.6336 11.0832H28.7379V7.65936H29.6336C30.0801 7.63446 30.5143 7.81137 30.8175 8.1417C31.1207 8.47203 31.261 8.92121 31.2003 9.36639C31.2658 9.81343 31.1274 10.2663 30.8235 10.5994C30.5196 10.9324 30.0825 11.1102 29.6336 11.0832Z" fill="white"/>
<path fill-rule="evenodd" clip-rule="evenodd" d="M33.9804 8.34287C33.4319 8.68489 33.1238 9.30978 33.1853 9.95547C33.1226 10.6019 33.4305 11.228 33.9795 11.5707C34.5285 11.9135 35.2235 11.9135 35.7725 11.5707C36.3215 11.228 36.6293 10.6019 36.5667 9.95547C36.6282 9.30978 36.32 8.68489 35.7715 8.34287C35.223 8.00086 34.5289 8.00086 33.9804 8.34287ZM34.8771 8.71797C35.4898 8.71797 35.8389 9.17461 35.8389 9.95547H35.8389C35.8389 10.7395 35.4898 11.1957 34.8771 11.1957C34.2621 11.1957 33.9161 10.7426 33.9161 9.95548C33.9161 9.17461 34.2621 8.71797 34.8771 8.71797Z" fill="white"/>
<path d="M41.0615 11.7582H40.3276L39.5866 9.10504H39.5306L38.7927 11.7582H38.0658L37.0775 8.15582H37.7952L38.4374 10.9046H38.4903L39.2274 8.15582H39.9061L40.6432 10.9046H40.6992L41.3383 8.15582H42.0459L41.0615 11.7582Z" fill="white"/>
<path d="M42.877 8.1558H43.5581V8.72807H43.611C43.7949 8.30673 44.2245 8.04899 44.6809 8.08627C45.0342 8.05957 45.3805 8.19578 45.6219 8.45643C45.8633 8.71708 45.9736 9.07389 45.9218 9.42611V11.7581H45.2142V9.60464C45.2142 9.02573 44.9639 8.73784 44.4406 8.73784C44.2009 8.72662 43.9683 8.82113 43.8038 8.9966C43.6392 9.17207 43.5592 9.41099 43.5846 9.65072V11.7581H42.877L42.877 8.1558Z" fill="white"/>
<path d="M47.0492 6.74957H47.7567V11.7582H47.0492V6.74957Z" fill="white"/>
<path fill-rule="evenodd" clip-rule="evenodd" d="M49.5355 8.34287C48.987 8.68489 48.6788 9.30978 48.7403 9.95547C48.6776 10.6019 48.9855 11.228 49.5345 11.5707C50.0835 11.9135 50.7785 11.9135 51.3275 11.5707C51.8765 11.228 52.1844 10.6019 52.1217 9.95547C52.1832 9.30978 51.8751 8.68489 51.3265 8.34287C50.778 8.00086 50.084 8.00086 49.5355 8.34287ZM50.4322 8.71797C51.0448 8.71797 51.394 9.17461 51.394 9.95547H51.394C51.394 10.7395 51.0449 11.1957 50.4322 11.1957C49.8172 11.1957 49.4712 10.7426 49.4712 9.95548C49.4712 9.17461 49.8172 8.71797 50.4322 8.71797Z" fill="white"/>
<path fill-rule="evenodd" clip-rule="evenodd" d="M54.2 9.66403C53.3471 9.71716 52.8666 10.091 52.8666 10.7394C52.8678 11.0469 52.9984 11.3395 53.226 11.5449C53.4537 11.7503 53.7573 11.8493 54.0616 11.8175C54.4958 11.8377 54.9072 11.6216 55.1385 11.2519H55.1945V11.7582H55.8756V9.29685C55.8756 8.5359 55.3686 8.0863 54.4698 8.0863C53.6565 8.0863 53.0773 8.48318 53.005 9.10193H53.69C53.7685 8.84724 54.0422 8.70154 54.4372 8.70154C54.9208 8.70154 55.1711 8.91638 55.1711 9.29685V9.60778L54.2 9.66403ZM55.1711 10.1304V10.4316C55.1557 10.6612 55.0481 10.8747 54.8731 11.0231C54.6981 11.1715 54.4707 11.2423 54.2428 11.2191C53.8579 11.2191 53.578 11.0304 53.578 10.7062C53.578 10.3886 53.8019 10.2199 54.2957 10.1867L55.1711 10.1304Z" fill="white"/>
<path fill-rule="evenodd" clip-rule="evenodd" d="M58.2936 8.09607C57.3878 8.09607 56.8055 8.81716 56.8055 9.95544C56.8055 11.0965 57.3816 11.8176 58.2937 11.8175C58.756 11.8347 59.1897 11.5926 59.4195 11.189H59.4755V11.7582H60.1535V6.74957H59.4459V8.72807H59.3931C59.1794 8.32115 58.751 8.07489 58.2936 8.09607ZM58.4943 11.1793C57.8948 11.1793 57.5364 10.7195 57.5364 9.95544H57.5363C57.5363 9.19763 57.8987 8.73474 58.4943 8.73474C59.0867 8.73474 59.4592 9.20779 59.4592 9.95857C59.4592 10.7129 59.0906 11.1793 58.4943 11.1793Z" fill="white"/>
<path fill-rule="evenodd" clip-rule="evenodd" d="M63.8761 8.34282C63.3276 8.68483 63.0194 9.30974 63.0808 9.95547C63.0183 10.6019 63.3262 11.228 63.8752 11.5707C64.4242 11.9134 65.1192 11.9134 65.6683 11.5707C66.2173 11.228 66.5252 10.6019 66.4626 9.95547C66.5241 9.30974 66.2159 8.68483 65.6673 8.34282C65.1188 8.0008 64.4247 8.0008 63.8761 8.34282ZM64.7727 8.71798C65.3854 8.71798 65.7345 9.17462 65.7345 9.95547H65.7345C65.7345 10.7395 65.3853 11.1957 64.7727 11.1957C64.1577 11.1957 63.8117 10.7426 63.8117 9.95548C63.8117 9.17462 64.1577 8.71798 64.7727 8.71798Z" fill="white"/>
<path d="M67.412 8.1558H68.0931V8.72807H68.146C68.3298 8.30673 68.7595 8.04899 69.2158 8.08627C69.5692 8.05957 69.9155 8.19578 70.1569 8.45643C70.3983 8.71708 70.5086 9.07389 70.4567 9.42611V11.7581H69.7492V9.60464C69.7492 9.02573 69.4989 8.73784 68.9756 8.73784C68.7359 8.72662 68.5033 8.82113 68.3388 8.9966C68.1742 9.17207 68.0941 9.41099 68.1195 9.65072V11.7581H67.412V8.1558Z" fill="white"/>
<path d="M74.4548 7.25897V8.17225H75.2315V8.77108H74.4548V10.6234C74.4548 11.0008 74.6095 11.166 74.9617 11.166C75.0519 11.1657 75.1419 11.1602 75.2315 11.1496V11.7418C75.1044 11.7646 74.9757 11.7768 74.8466 11.7781C74.0598 11.7781 73.7464 11.5 73.7464 10.8055V8.77105H73.1773V8.17222H73.7464V7.25897H74.4548Z" fill="white"/>
<path d="M76.1979 6.74957H76.8993V8.73473H76.9552C77.1479 8.30971 77.5851 8.05164 78.0484 8.08942C78.3997 8.07021 78.7413 8.20942 78.9801 8.46912C79.2189 8.72882 79.3299 9.08198 79.2831 9.43239V11.7582H78.5748V9.60777C78.5748 9.03238 78.3081 8.74097 77.8082 8.74097C77.5621 8.72069 77.3195 8.81061 77.1455 8.98669C76.9715 9.16277 76.8836 9.40706 76.9055 9.65425V11.7582H76.198L76.1979 6.74957Z" fill="white"/>
<path fill-rule="evenodd" clip-rule="evenodd" d="M81.8552 11.8277C82.5558 11.9041 83.2102 11.465 83.4086 10.7855L82.7275 10.7855C82.5577 11.0914 82.2208 11.264 81.8746 11.2222C81.6076 11.2252 81.3518 11.1149 81.17 10.9184C80.9883 10.7219 80.8974 10.4575 80.9198 10.1902V10.1504H83.4514V9.9023C83.4514 8.7711 82.8496 8.0863 81.852 8.0863C81.3728 8.0822 80.9153 8.28725 80.5982 8.64833C80.281 9.00942 80.1354 9.49101 80.199 9.96834C80.1337 10.4443 80.2798 10.9252 80.5988 11.2832C80.9177 11.6413 81.3771 11.8404 81.8552 11.8277ZM82.7306 9.62458H80.9198C80.9166 9.37618 81.0133 9.137 81.1881 8.96129C81.3629 8.78559 81.6009 8.68826 81.8481 8.69138C82.0921 8.68576 82.327 8.78391 82.495 8.96162C82.6631 9.13934 82.7487 9.3801 82.7306 9.62458Z" fill="white"/>
</svg>
