<svg width="32" height="30" viewBox="0 0 32 30" fill="none" xmlns="http://www.w3.org/2000/svg">
<path d="M24.5166 0.357422V0.257422H24.4166H1.05664H0.956641V0.357422V26.2774V26.3774H1.05664H6.24864L26.5508 29.7435L26.6491 29.7598L26.6657 29.6616L30.9992 4.09585L31.0163 3.99527L30.9154 3.98023L24.5166 3.0262V0.357422ZM25.4357 28.0584L15.2972 26.3774H24.4165H24.5165V26.2774V22.9096L25.0951 23.0076L25.1937 23.0244L25.2104 22.9258L28.0449 6.20405L28.0617 6.10544L27.9631 6.08874L24.5165 5.50508V4.52254L29.3044 5.23609L25.4357 28.0584ZM24.5166 18.1641V7.00609L26.3551 7.3178L24.5166 18.1641ZM2.43664 1.73748H23.0366V24.8975H2.43664V1.73748Z" fill="white" stroke="white" stroke-width="0.2"/>
<path d="M3.51621 20.518V20.618H3.61621H21.8562H21.9562V20.518V2.91797V2.81797H21.8562H3.61621H3.51621V2.91797V20.518ZM9.28892 14.9938L9.28895 14.9938L9.29382 14.9981C9.83135 15.477 10.5162 16.0872 11.8847 16.0872C12.5601 16.0872 13.1214 15.824 13.6174 15.4422C14.105 15.0668 14.5352 14.5721 14.9515 14.0933L14.9675 14.0749L14.9676 14.0749L14.9964 14.0417C15.3798 13.6009 15.743 13.1833 16.1265 12.8721C16.5181 12.5543 16.9211 12.3559 17.3754 12.3559C17.6031 12.3559 17.824 12.4609 18.041 12.6538C18.2582 12.847 18.4644 13.1224 18.6598 13.4472C19.0329 14.0674 19.3552 14.8477 19.6375 15.5314C19.6511 15.5643 19.6646 15.5969 19.678 15.6294C19.9407 16.2653 20.2039 16.8236 20.4764 17.2433V19.1381H4.99633V17.8851C5.38967 17.1473 5.95113 16.2714 6.52289 15.579C6.81175 15.2291 7.10084 14.9291 7.37 14.7173C7.64269 14.5028 7.87972 14.3912 8.06684 14.3912C8.34329 14.3912 8.54243 14.4496 8.72274 14.5506C8.90726 14.6538 9.07459 14.8027 9.28892 14.9938ZM4.99661 4.2982L20.4763 4.29808V13.6329C20.1694 12.9892 19.8164 12.3673 19.3867 11.8782C18.8633 11.2824 18.2192 10.8764 17.402 10.8764C15.8024 10.8764 14.762 12.072 13.877 13.0892L13.864 13.104L13.864 13.1041C13.5187 13.501 13.1896 13.8791 12.8594 14.1588C12.5284 14.4392 12.2112 14.6076 11.8915 14.6076C11.4825 14.6076 11.195 14.5287 10.9548 14.4031C10.7114 14.2758 10.5118 14.0986 10.277 13.8892L10.277 13.8892L10.2748 13.8873C9.79717 13.4616 9.18011 12.9116 8.06873 12.9116C7.44835 12.9116 6.84337 13.2364 6.29468 13.6979C5.82093 14.0963 5.38026 14.604 4.99661 15.1164V4.2982Z" fill="white" stroke="white" stroke-width="0.2"/>
<path d="M7.55693 8.03737V8.03734C7.55672 7.38678 8.08602 6.85748 8.73682 6.85748C9.38758 6.85748 9.9167 7.38681 9.9167 8.03737C9.9167 8.68813 9.38737 9.21725 8.73682 9.21725C8.08606 9.21725 7.55693 8.68792 7.55693 8.03737ZM8.73682 10.6977C10.2036 10.6977 11.3969 9.50442 11.3969 8.0376C11.3969 6.57077 10.2036 5.37754 8.73682 5.37754C7.26999 5.37754 6.07676 6.57077 6.07676 8.0376C6.07676 9.50419 7.26998 10.6977 8.73682 10.6977Z" fill="white" stroke="white" stroke-width="0.2"/>
</svg>
