<svg width="74" height="76" viewBox="0 0 74 76" fill="none" xmlns="http://www.w3.org/2000/svg">
<path d="M65.9885 7.44181H58.8556H57.8165C56.5509 7.44181 55.4728 8.51213 55.4728 9.78553V15.8637C55.4728 16.1684 55.4963 16.473 55.465 16.7777C55.4963 16.5668 55.5197 16.3637 55.551 16.1527C55.5431 16.184 55.5353 16.2152 55.5197 16.2465L55.7541 15.684C55.9103 15.4496 56.0978 15.2621 56.3322 15.1059L56.8947 14.8715C56.8635 14.8793 56.8322 14.8871 56.801 14.9027C57.0119 14.8715 57.215 14.848 57.426 14.8168C56.6525 14.8949 55.84 14.8246 55.0665 14.8246H51.4181C51.1134 14.8246 50.7931 14.848 50.4884 14.8168C50.6994 14.848 50.9025 14.8715 51.1134 14.9027C51.0822 14.8949 51.0509 14.8871 51.0197 14.8715L51.5822 15.1059C51.8165 15.2621 52.004 15.4496 52.1603 15.684L52.3947 16.2465C52.3868 16.2152 52.379 16.184 52.3634 16.1527C52.3947 16.3637 52.4181 16.5668 52.4493 16.7777C52.3712 16.0043 52.4415 15.1917 52.4415 14.4183V10.6604V9.79326C52.4415 8.52763 51.3712 7.44954 50.0978 7.44954H41.215H27.1447H23.8947C22.629 7.44954 21.551 8.51986 21.551 9.79326V15.8714C21.551 16.1761 21.5744 16.4808 21.5432 16.7855C21.5744 16.5745 21.5978 16.3714 21.6291 16.1605C21.6213 16.1917 21.6135 16.223 21.5978 16.2542L21.8322 15.6917C21.9885 15.4573 22.176 15.2698 22.4103 15.1136C22.5978 15.0355 22.7853 14.9573 22.9728 14.8792C22.9416 14.887 22.9103 14.8948 22.8791 14.9105C23.09 14.8792 23.2931 14.8558 23.5041 14.8245C22.7306 14.9026 21.9181 14.8323 21.1447 14.8323H17.4962C17.1915 14.8323 16.8712 14.8558 16.5665 14.8245C16.7775 14.8558 16.9806 14.8792 17.1915 14.9105C17.1603 14.9026 17.129 14.8948 17.0978 14.8792C17.2853 14.9573 17.4728 15.0355 17.6603 15.1136C17.8947 15.2698 18.0822 15.4573 18.2384 15.6917L18.4728 16.2542C18.465 16.223 18.4572 16.1917 18.4415 16.1605C18.4728 16.3714 18.4962 16.5745 18.5275 16.7855C18.4494 16.012 18.5197 15.1995 18.5197 14.426V10.6682V9.80099C18.5197 8.53536 17.4494 7.45727 16.176 7.45727H11.1994H8.48067C7.17599 7.45727 5.95724 7.66821 4.76196 8.19946C2.06667 9.40259 0.418244 12.2542 0.410387 15.1526V16.9182V25.6603V38.6135V52.2306V63.1993C0.410387 64.8478 0.394761 66.4962 0.410387 68.1446C0.433824 71.6212 2.92596 74.9415 6.41824 75.5978C7.24637 75.754 8.01196 75.7696 8.8401 75.7696H15.8401H27.6995H41.434H54.2621H63.3792H65.6058C67.309 75.7696 69.0042 75.3868 70.3948 74.3478C71.2698 73.6915 72.0198 72.9337 72.5745 71.9728C73.1527 70.9728 73.4417 69.9102 73.5589 68.7696C73.5901 68.4962 73.5901 68.2227 73.5901 67.9493V65.879V56.6524V43.5977V30.0587V19.3713C73.5901 17.926 73.6058 16.4884 73.5901 15.0431C73.5745 13.0587 72.7933 11.1369 71.3949 9.715C69.973 8.26186 67.9964 7.465 65.9886 7.44157C64.762 7.42595 63.5901 8.52751 63.6449 9.78529C63.6996 11.0665 64.6761 12.1134 65.9886 12.129C66.2073 12.129 66.4183 12.1446 66.637 12.1681C66.4261 12.1368 66.223 12.1134 66.012 12.0821C66.5042 12.1446 66.973 12.2774 67.4261 12.4649L66.8636 12.2306C67.1448 12.3556 67.4183 12.4962 67.6761 12.6681C67.7464 12.7149 67.8167 12.7696 67.887 12.8165C68.0901 12.9337 67.4105 12.4103 67.6917 12.6681C67.8089 12.7696 67.9183 12.8712 68.0276 12.9806C68.137 13.0899 68.2386 13.2071 68.3401 13.3165C68.5589 13.5587 68.1526 13.0821 68.1605 13.0821C68.1917 13.0821 68.2933 13.2696 68.3089 13.2931C68.4886 13.5665 68.6448 13.8478 68.7776 14.1525C68.6995 13.965 68.6214 13.7775 68.5433 13.59C68.7308 14.0431 68.8636 14.5118 68.9261 15.004C68.8948 14.7931 68.8714 14.59 68.8401 14.379C68.9105 15.0196 68.8792 15.6759 68.8792 16.3243V20.129V25.8712V32.918V40.6212V48.4337V55.7072V61.7932V66.1447V68.1057C68.8792 68.3401 68.8636 68.5745 68.8401 68.8089C68.8714 68.5979 68.8948 68.3948 68.9261 68.1839C68.8636 68.6761 68.7308 69.1448 68.5433 69.5979C68.6214 69.4104 68.6995 69.2229 68.7776 69.0354C68.6526 69.3167 68.512 69.5901 68.3401 69.8479C68.2933 69.9182 68.2386 69.9885 68.1917 70.0589C68.0745 70.262 68.598 69.5823 68.3401 69.8636C68.2386 69.9807 68.137 70.0901 68.0276 70.1995C67.9183 70.3089 67.8011 70.4104 67.6917 70.512C67.4495 70.7307 67.9261 70.3245 67.9261 70.3323C67.9261 70.3636 67.7386 70.4651 67.7151 70.4808C67.4417 70.6604 67.1605 70.8167 66.8558 70.9495L67.4183 70.7151C66.9651 70.9026 66.4964 71.0354 66.0042 71.0979C66.2151 71.0667 66.4183 71.0433 66.6292 71.012C65.9495 71.0901 65.2464 71.0511 64.5589 71.0511H60.3792H54.1136H46.4652H38.0355H29.5199H21.5902H14.9184H10.1918H8.03549C7.80112 71.0511 7.55894 71.0354 7.32455 71.012C7.53549 71.0433 7.73861 71.0667 7.94955 71.0979C7.45737 71.0354 6.98861 70.9026 6.53549 70.7151L7.09799 70.9495C6.81674 70.8245 6.54331 70.6839 6.28549 70.512C6.21518 70.4651 6.14487 70.4104 6.07455 70.3636C5.87142 70.2464 6.55111 70.7698 6.26986 70.512C6.15268 70.4104 6.04331 70.3089 5.93392 70.1995C5.82455 70.0901 5.72298 69.9729 5.62142 69.8636C5.40268 69.6214 5.80892 70.0979 5.80111 70.0979C5.76986 70.0979 5.6683 69.9104 5.65267 69.887C5.47298 69.6135 5.31672 69.3323 5.18392 69.0276C5.26205 69.2151 5.34018 69.4026 5.41829 69.5901C5.23079 69.137 5.09798 68.6682 5.03548 68.1761C5.06673 68.387 5.09017 68.5901 5.12142 68.8011C5.0511 68.1604 5.08235 67.5042 5.08235 66.8558V63.0511V57.3089V50.262V42.5589V34.7463V27.4729V21.3869V17.0353V15.0743C5.08235 14.84 5.09798 14.6056 5.12142 14.3712C5.09017 14.5821 5.06673 14.7853 5.03548 14.9962C5.09798 14.504 5.23079 14.0353 5.41829 13.5821C5.34017 13.7696 5.26204 13.9571 5.18392 14.1446C5.30892 13.8634 5.44955 13.59 5.62142 13.3321C5.6683 13.2618 5.72298 13.1915 5.76986 13.1212C5.88705 12.9181 5.36361 13.5978 5.62142 13.3165C5.72299 13.1993 5.82455 13.09 5.93392 12.9806C6.0433 12.8712 6.16048 12.7696 6.26986 12.6681C6.51205 12.4493 6.03549 12.8556 6.03549 12.8478C6.03549 12.8165 6.22299 12.7149 6.24644 12.6993C6.51988 12.5196 6.80112 12.3634 7.10581 12.2306L6.54331 12.4649C6.99644 12.2774 7.46518 12.1446 7.95736 12.0821C7.74642 12.1134 7.54331 12.1368 7.33236 12.1681C8.36362 12.0509 9.43394 12.129 10.4652 12.129H15.0589H16.1527L13.809 9.78529V14.4884C13.809 15.1837 13.7933 15.8869 13.809 16.59C13.8402 17.8947 14.6137 19.0821 15.9261 19.426C16.3089 19.5276 16.6605 19.5198 17.0355 19.5198H22.5276C22.7854 19.5198 23.0511 19.5276 23.3089 19.5198C24.8714 19.4729 26.1136 18.3713 26.2073 16.7853C26.2386 16.2541 26.2151 15.7228 26.2151 15.1916V9.79318L23.8714 12.1369H32.7543H46.8245H50.0745L47.7308 9.79318V14.4963C47.7308 15.1916 47.7152 15.8948 47.7308 16.5979C47.7621 17.9026 48.5355 19.09 49.848 19.4339C50.2308 19.5355 50.5823 19.5276 50.9573 19.5276H56.4495C56.7073 19.5276 56.9729 19.5355 57.2307 19.5276C58.7933 19.4808 60.0355 18.3792 60.1292 16.7932C60.1604 16.262 60.137 15.7307 60.137 15.1995V9.80107L57.7933 12.1448H64.9261H65.9652C67.1917 12.1448 68.3636 11.0667 68.3089 9.80107C68.2698 8.51981 67.3011 7.44164 65.9886 7.44164L65.9885 7.44181Z" fill="#EE2339"/>
<path d="M2.73844 28.2554H4.56658H9.55101H16.926H25.9182H35.7697H45.715H54.9572H62.8243H68.4414C69.3321 28.2554 70.2227 28.2632 71.1133 28.2554H71.2305C72.4571 28.2554 73.6289 27.1772 73.5742 25.9116C73.5195 24.6382 72.543 23.5679 71.2305 23.5679H69.4024H64.4179H57.0429H48.0508H38.1992H28.2539H19.0118H11.1446H5.52749C4.63686 23.5679 3.7462 23.5601 2.85563 23.5679H2.73844C1.51188 23.5679 0.340013 24.6461 0.394727 25.9116C0.457227 27.1773 1.42598 28.2554 2.73844 28.2554V28.2554Z" fill="#EE2339"/>
<path d="M21.5427 3.16063V7.77005V15.0435C21.5427 15.6138 21.5896 16.2075 21.5349 16.7779C21.5662 16.567 21.5896 16.3639 21.6208 16.1529C21.613 16.1842 21.6052 16.2154 21.5896 16.2467C21.6677 16.0592 21.7458 15.8717 21.824 15.6842C21.9802 15.4498 22.1677 15.2623 22.4021 15.106L22.9646 14.8717C22.9333 14.8795 22.9021 14.8873 22.8708 14.9029C23.0818 14.8717 23.2849 14.8482 23.4958 14.817C22.7224 14.8951 21.9098 14.8248 21.1364 14.8248H17.488C17.1833 14.8248 16.863 14.8482 16.5583 14.817C16.7692 14.8482 16.9724 14.8717 17.1833 14.9029C17.152 14.8951 17.1208 14.8873 17.0895 14.8717L17.652 15.106C17.8864 15.2623 18.0739 15.4498 18.2302 15.6842C18.3083 15.8717 18.3864 16.0592 18.4645 16.2467C18.4567 16.2154 18.4489 16.1842 18.4333 16.1529C18.4645 16.3639 18.488 16.567 18.5192 16.7779C18.4724 16.317 18.5114 15.8326 18.5114 15.3717V12.1451V4.80137C18.5114 4.23105 18.4645 3.63731 18.5192 3.06694C18.488 3.27788 18.4645 3.481 18.4333 3.69194C18.4411 3.66069 18.4489 3.62944 18.4645 3.59819C18.3864 3.78569 18.3083 3.97319 18.2302 4.16069C18.0739 4.39506 17.8864 4.58256 17.652 4.73882C17.4645 4.81694 17.277 4.89508 17.0895 4.97319C17.1208 4.96538 17.152 4.95757 17.1833 4.94194C16.9724 4.97319 16.7692 4.99663 16.5583 5.02788C17.3317 4.94975 18.1443 5.02006 18.9177 5.02006H22.5662C22.8708 5.02006 23.1912 4.99663 23.4958 5.02788C23.2849 4.99663 23.0818 4.97319 22.8708 4.94194C22.9021 4.94975 22.9333 4.95757 22.9646 4.97319C22.7771 4.89507 22.5896 4.81693 22.4021 4.73882C22.1677 4.58256 21.9802 4.39508 21.824 4.16069C21.7458 3.97319 21.6677 3.78569 21.5896 3.59819C21.5974 3.62944 21.6052 3.66069 21.6208 3.69194C21.5896 3.481 21.5662 3.27788 21.5349 3.06694C21.5349 3.09819 21.5427 3.12944 21.5427 3.16069C21.6052 3.80132 21.7615 4.34819 22.2302 4.81698C22.6365 5.22323 23.3005 5.52792 23.8865 5.50448C25.0506 5.44979 26.3631 4.46542 26.2302 3.16076C26.1755 2.61389 26.0974 2.17639 25.824 1.69976C25.5818 1.27789 25.1833 0.926319 24.7693 0.684133C24.3396 0.434133 23.8318 0.34039 23.3396 0.324761C23.1052 0.316949 22.8786 0.324761 22.6442 0.324761H19.7927H17.1287C16.9724 0.324761 16.8162 0.316949 16.6599 0.324761C15.0818 0.387261 13.8631 1.59039 13.8239 3.17633C13.738 6.38733 13.8239 9.61376 13.8239 12.8326C13.8239 14.0904 13.7849 15.356 13.8239 16.6216C13.863 17.8013 14.4724 18.809 15.5661 19.2779C16.027 19.4732 16.4879 19.5201 16.9723 19.5201H19.4879H22.4019C22.691 19.5201 22.9722 19.5279 23.2613 19.5201C24.3316 19.5045 25.2378 19.0435 25.8316 18.1451C26.2691 17.481 26.2378 16.7232 26.2378 15.9811V13.8327V3.39523V3.16868C26.2378 1.94212 25.1597 0.770247 23.8941 0.824961C22.6128 0.871836 21.5425 1.8484 21.5425 3.16096L21.5427 3.16063Z" fill="#EE2339"/>
<path d="M55.4727 3.16063V7.77005V15.0435C55.4727 15.6138 55.5196 16.2075 55.4649 16.7779C55.4961 16.567 55.5196 16.3639 55.5508 16.1529C55.543 16.1842 55.5352 16.2154 55.5196 16.2467L55.754 15.6842C55.9102 15.4498 56.0977 15.2623 56.3321 15.106L56.8946 14.8717C56.8633 14.8795 56.8321 14.8873 56.8008 14.9029C57.0118 14.8717 57.2149 14.8482 57.4258 14.817C56.6524 14.8951 55.8398 14.8248 55.0664 14.8248H51.418C51.1133 14.8248 50.793 14.8482 50.4883 14.817C50.6992 14.8482 50.9024 14.8717 51.1133 14.9029C51.082 14.8951 51.0508 14.8873 51.0195 14.8717L51.582 15.106C51.8164 15.2623 52.0039 15.4498 52.1602 15.6842L52.3945 16.2467C52.3867 16.2154 52.3789 16.1842 52.3633 16.1529C52.3945 16.3639 52.418 16.567 52.4492 16.7779C52.4024 16.317 52.4414 15.8326 52.4414 15.3717V12.1451V4.80137C52.4414 4.23105 52.3945 3.63731 52.4492 3.06694C52.418 3.27788 52.3945 3.481 52.3633 3.69194C52.3711 3.66069 52.3789 3.62944 52.3945 3.59819L52.1602 4.16069C52.0039 4.39506 51.8164 4.58256 51.582 4.73882C51.3945 4.81694 51.207 4.89508 51.0195 4.97319C51.0508 4.96538 51.082 4.95757 51.1133 4.94194C50.9024 4.97319 50.6992 4.99663 50.4883 5.02788C51.2617 4.94975 52.0743 5.02006 52.8477 5.02006H56.4961C56.8008 5.02006 57.1211 4.99663 57.4258 5.02788C57.2149 4.99663 57.0118 4.97319 56.8008 4.94194C56.8321 4.94975 56.8633 4.95757 56.8946 4.97319C56.7071 4.89507 56.5196 4.81693 56.3321 4.73882C56.0977 4.58256 55.9102 4.39508 55.754 4.16069L55.5196 3.59819C55.5274 3.62944 55.5352 3.66069 55.5508 3.69194C55.5196 3.481 55.4961 3.27788 55.4649 3.06694C55.4649 3.09819 55.4727 3.12944 55.4727 3.16069C55.5352 3.80132 55.6915 4.34819 56.1602 4.81698C56.5665 5.22323 57.2305 5.52792 57.8165 5.50448C58.9806 5.44979 60.2931 4.46542 60.1602 3.16076C60.1055 2.61389 60.0274 2.17639 59.754 1.69976C59.5118 1.27789 59.1133 0.926319 58.6993 0.684133C58.2696 0.434133 57.7618 0.34039 57.2696 0.324761C57.0352 0.316949 56.8086 0.324761 56.5742 0.324761H53.7227H51.0587C50.9024 0.324761 50.7462 0.316949 50.5899 0.324761C49.0118 0.387261 47.7931 1.59039 47.7539 3.17633C47.668 6.38733 47.7539 9.61376 47.7539 12.8326C47.7539 14.0904 47.7149 15.356 47.7539 16.6216C47.793 17.8013 48.4024 18.809 49.4961 19.2779C49.957 19.4732 50.4179 19.5201 50.9023 19.5201H53.4179H56.3398C56.6288 19.5201 56.9101 19.5279 57.1991 19.5201C58.2694 19.5045 59.1757 19.0435 59.7694 18.1451C60.2069 17.481 60.1757 16.7232 60.1757 15.9811V13.8327V3.39523V3.16868C60.1757 1.94212 59.0975 0.770247 57.832 0.824961C56.5429 0.871836 55.4725 1.8484 55.4725 3.16096L55.4727 3.16063Z" fill="#EE2339"/>
<path d="M43.027 47.5506H49.2614H59.1989H61.4802L59.1364 45.2069V51.4413V61.3787V63.66L61.4802 61.3163H55.2457H45.3083H43.027L45.3707 63.66V57.4256V47.4882V45.2069C45.3707 43.9803 44.2926 42.8085 43.027 42.8632C41.7536 42.9179 40.6833 43.8944 40.6833 45.2069V51.4413V61.3787V63.66C40.6833 64.9257 41.7536 66.0037 43.027 66.0037H49.2614H59.1989H61.4802C62.7458 66.0037 63.8239 64.9334 63.8239 63.66V57.4256V47.4882V45.2069C63.8239 43.9413 62.7536 42.8632 61.4802 42.8632H55.2457H45.3083H43.027C41.8005 42.8632 40.6286 43.9413 40.6833 45.2069C40.7458 46.4803 41.7146 47.5506 43.027 47.5506Z" fill="#EE2339"/>
</svg>
