<svg width="14" height="16" viewBox="0 0 14 16" fill="none" xmlns="http://www.w3.org/2000/svg">
<path d="M9.25012 12.8996C9.25012 13.4566 9.01307 13.9907 8.59112 14.3845C8.16917 14.7784 7.59689 14.9996 7.00016 14.9996C6.40343 14.9996 5.83115 14.7784 5.4092 14.3845C4.98725 13.9907 4.7502 13.4566 4.7502 12.8996M7.5409 3.10172L6.44142 3.09962C3.93346 3.09402 1.75625 4.99592 1.739 7.29962V9.95262C1.739 10.5056 1.664 11.0453 1.34076 11.5052L1.12551 11.8118C0.797769 12.2766 1.15026 12.8996 1.739 12.8996H12.2613C12.8501 12.8996 13.2018 12.2766 12.8748 11.8118L12.6596 11.5052C12.3371 11.0453 12.2613 10.5049 12.2613 9.95192V7.30032C12.2313 4.99592 10.0489 3.10732 7.5409 3.10172V3.10172Z" stroke="#8B8B8B" stroke-width="1.5" stroke-linecap="round" stroke-linejoin="round"/>
<path d="M6.99997 1C7.39779 1 7.77932 1.1475 8.06062 1.41005C8.34191 1.6726 8.49995 2.0287 8.49995 2.4V3.1H5.5V2.4C5.5 2.0287 5.65803 1.6726 5.93933 1.41005C6.22063 1.1475 6.60216 1 6.99997 1Z" stroke="#8B8B8B" stroke-width="1.5" stroke-linecap="round" stroke-linejoin="round"/>
</svg>
