<svg width="14" height="14" viewBox="0 0 14 14" fill="none" xmlns="http://www.w3.org/2000/svg">
<path fill-rule="evenodd" clip-rule="evenodd" d="M0.333496 1.66634C0.333496 0.929962 0.930449 0.333008 1.66683 0.333008H4.3335H5.00016V0.999674V12.9997V13.6663H4.3335H1.66683C0.93045 13.6663 0.333496 13.0694 0.333496 12.333V1.66634ZM3.66683 1.66634L1.66683 1.66634V12.333H3.66683V1.66634ZM6.3335 0.333008H7.00016H12.3335C13.0699 0.333008 13.6668 0.929962 13.6668 1.66634V5.66634V6.33301H13.0002H7.00016H6.3335V5.66634V0.999674V0.333008ZM7.66683 1.66634V4.99967H12.3335V1.66634H7.66683ZM7.00016 7.66634H6.3335V8.33301V12.9997V13.6663H7.00016H12.3335C13.0699 13.6663 13.6668 13.0694 13.6668 12.333V8.33301V7.66634H13.0002H7.00016ZM7.66683 12.333V8.99967H12.3335V12.333H7.66683Z" fill="#19192E"/>
<path d="M1.66683 1.66634L3.66683 1.66634V12.333H1.66683V1.66634Z" fill="#19192E"/>
<path d="M7.66683 4.99967V1.66634H12.3335V4.99967H7.66683Z" fill="#19192E"/>
<path d="M7.66683 8.99967V12.333H12.3335V8.99967H7.66683Z" fill="#19192E"/>
</svg>
