<svg width="14" height="14" viewBox="0 0 14 14" fill="none" xmlns="http://www.w3.org/2000/svg">
<path fill-rule="evenodd" clip-rule="evenodd" d="M7.00033 12.3337C9.94584 12.3337 12.3337 9.94584 12.3337 7.00033C12.3337 4.05481 9.94584 1.66699 7.00033 1.66699C4.05481 1.66699 1.66699 4.05481 1.66699 7.00033C1.66699 9.94584 4.05481 12.3337 7.00033 12.3337ZM7.75033 3.66699C7.75033 3.25278 7.41454 2.91699 7.00033 2.91699C6.58611 2.91699 6.25033 3.25278 6.25033 3.66699V6.5861C6.25033 7.05022 6.4347 7.49534 6.76288 7.82353L7.80332 8.86399C8.09622 9.15688 8.57109 9.15688 8.86399 8.86399C9.15688 8.5711 9.15688 8.09623 8.86399 7.80333L7.82355 6.76287C7.77666 6.71599 7.75033 6.6524 7.75033 6.5861V3.66699Z" fill="#1A1941"/>
<path fill-rule="evenodd" clip-rule="evenodd" d="M13.8337 7.00033C13.8337 10.7743 10.7743 13.8337 7.00033 13.8337C3.22638 13.8337 0.166992 10.7743 0.166992 7.00033C0.166992 3.22638 3.22638 0.166992 7.00033 0.166992C10.7743 0.166992 13.8337 3.22638 13.8337 7.00033ZM7.00033 12.3337C9.94584 12.3337 12.3337 9.94584 12.3337 7.00033C12.3337 4.05481 9.94584 1.66699 7.00033 1.66699C4.05481 1.66699 1.66699 4.05481 1.66699 7.00033C1.66699 9.94584 4.05481 12.3337 7.00033 12.3337Z" fill="#1A1941"/>
</svg>
