<svg width="14" height="14" viewBox="0 0 14 14" fill="none" xmlns="http://www.w3.org/2000/svg">
<path fill-rule="evenodd" clip-rule="evenodd" d="M6.99984 13.8337C10.7738 13.8337 13.8332 10.7743 13.8332 7.00033C13.8332 3.22638 10.7738 0.166992 6.99984 0.166992C3.22589 0.166992 0.166504 3.22638 0.166504 7.00033C0.166504 10.7743 3.22589 13.8337 6.99984 13.8337ZM12.3332 7.00033C12.3332 9.94584 9.94536 12.3337 6.99984 12.3337C4.05432 12.3337 1.6665 9.94584 1.6665 7.00033C1.6665 4.05481 4.05432 1.66699 6.99984 1.66699C9.94536 1.66699 12.3332 4.05481 12.3332 7.00033ZM7.74984 3.66699C7.74984 3.25278 7.41405 2.91699 6.99984 2.91699C6.58562 2.91699 6.24984 3.25278 6.24984 3.66699V6.5861C6.24984 7.05022 6.43421 7.49534 6.76239 7.82353L7.80284 8.86399C8.09573 9.15688 8.5706 9.15688 8.8635 8.86399C9.15639 8.5711 9.15639 8.09623 8.8635 7.80333L7.82306 6.76287C7.77618 6.71599 7.74984 6.6524 7.74984 6.5861V3.66699Z" fill="#8B8B8B"/>
</svg>
