<svg width="20" height="20" viewBox="0 0 20 20" fill="none" xmlns="http://www.w3.org/2000/svg">
<path fill-rule="evenodd" clip-rule="evenodd" d="M14.1608 2.0983C14.5695 2.17371 14.7009 2.356 14.7356 2.45717C14.7702 2.55834 14.7825 2.79574 14.5302 3.17688C14.2832 3.55011 13.8413 3.95036 13.2436 4.22681C12.6459 4.50326 12.0882 4.56539 11.688 4.49154C11.2793 4.41613 11.1479 4.23384 11.1132 4.13267C11.0786 4.0315 11.0663 3.7941 11.3186 3.41297C11.5657 3.03973 12.0076 2.63949 12.6052 2.36303C13.2029 2.08658 13.7606 2.02446 14.1608 2.0983ZM14.6233 0.0572772C13.8067 -0.0934081 12.8611 0.0528565 11.9572 0.470937C11.1784 0.831183 10.4963 1.36282 10 1.99025C9.50367 1.36282 8.82164 0.831183 8.04281 0.470937C7.13894 0.0528565 6.19328 -0.0934081 5.37667 0.0572772C4.56854 0.206399 3.76977 0.681564 3.44919 1.61755C3.12861 2.55353 3.42793 3.53662 3.92684 4.29031C4.11999 4.58209 4.35268 4.85734 4.61708 5.1094H2C0.895432 5.1094 0 6.00483 0 7.1094V9.076C0 10.1806 0.89543 11.076 2 11.076H2.36579C2.3674 11.076 2.36901 11.076 2.37063 11.076L2.5 11.076V18.0008C2.5 19.1054 3.39543 20.0008 4.5 20.0008H15.5C16.6046 20.0008 17.5 19.1054 17.5 18.0008V11.076C17.5016 11.076 17.5032 11.076 17.5048 11.076H18C19.1046 11.076 20 10.1806 20 9.076V7.1094C20 6.00483 19.1046 5.1094 18 5.1094H15.3829C15.6473 4.85734 15.88 4.58209 16.0732 4.29031C16.5721 3.53662 16.8714 2.55353 16.5508 1.61755C16.2302 0.681564 15.4315 0.206399 14.6233 0.0572772ZM15.5 11.076V18.0008H11V11.076H15.5ZM9 11.076V18.0008H4.5V11.076H9ZM2.50684 9.07601H17.4932C17.4954 9.076 17.4977 9.076 17.5 9.076H18V7.1094H2V9.076H2.5C2.50228 9.076 2.50456 9.076 2.50684 9.07601ZM5.83917 2.0983C5.4305 2.17371 5.29906 2.356 5.26441 2.45717C5.22976 2.55834 5.21746 2.79574 5.46976 3.17688C5.71682 3.55011 6.15873 3.95036 6.75641 4.22681C7.35408 4.50326 7.9118 4.56539 8.31199 4.49154C8.72066 4.41613 8.85211 4.23384 8.88676 4.13267C8.92141 4.0315 8.93371 3.7941 8.68141 3.41297C8.43434 3.03973 7.99243 2.63949 7.39476 2.36303C6.79708 2.08658 6.23937 2.02446 5.83917 2.0983Z" fill="#7C7B7B"/>
</svg>
