<svg width="12" height="14" viewBox="0 0 12 14" fill="none" xmlns="http://www.w3.org/2000/svg">
<path fill-rule="evenodd" clip-rule="evenodd" d="M4 0.999674C4 0.631485 3.70152 0.333008 3.33333 0.333008C2.96514 0.333008 2.66667 0.631485 2.66667 0.999674V1.66634H1.33333C0.596954 1.66634 0 2.26329 0 2.99967V6.33301V12.333C0 13.0694 0.596954 13.6663 1.33333 13.6663H10.6667C11.403 13.6663 12 13.0694 12 12.333V6.33301V2.99967C12 2.26329 11.403 1.66634 10.6667 1.66634H9.33333V0.999674C9.33333 0.631485 9.03486 0.333008 8.66667 0.333008C8.29848 0.333008 8 0.631485 8 0.999674V1.66634H4V0.999674ZM10.6667 5.66634V2.99967H9.33333V3.66634C9.33333 4.03453 9.03486 4.33301 8.66667 4.33301C8.29848 4.33301 8 4.03453 8 3.66634V2.99967H4V3.66634C4 4.03453 3.70152 4.33301 3.33333 4.33301C2.96514 4.33301 2.66667 4.03453 2.66667 3.66634V2.99967H1.33333V5.66634H10.6667ZM1.33333 6.99967H10.6667V12.333H1.33333V6.99967Z" fill="#1A1941"/>
<path d="M10.6667 2.99967V5.66634H1.33333V2.99967H2.66667V3.66634C2.66667 4.03453 2.96514 4.33301 3.33333 4.33301C3.70152 4.33301 4 4.03453 4 3.66634V2.99967H8V3.66634C8 4.03453 8.29848 4.33301 8.66667 4.33301C9.03486 4.33301 9.33333 4.03453 9.33333 3.66634V2.99967H10.6667Z" fill="#1A1941"/>
<path d="M10.6667 6.99967H1.33333V12.333H10.6667V6.99967Z" fill="#1A1941"/>
</svg>
