<svg width="20" height="20" viewBox="0 0 20 20" fill="none" xmlns="http://www.w3.org/2000/svg">
<path fill-rule="evenodd" clip-rule="evenodd" d="M4.00199 4.70609C2.75608 6.11664 2 7.97002 2 10C2 14.4183 5.58172 18 10 18C11.1612 18 12.2647 17.7526 13.2605 17.3076C13.2321 17.1077 13.2129 16.8826 13.1928 16.648C13.1216 15.8137 13.0402 14.8602 12.5 14.5C11 13.5 11 12.5 11 12C11 10.8 12.5 10 13.5 10.5C13.5 11 14.1 12 14.5 12C14.8536 12 14.9571 12.25 15.1642 12.75C15.25 12.9571 15.3536 13.2071 15.5 13.5C15.7526 14.0053 16.1515 14.4042 16.4951 14.6715C17.4421 13.3571 18 11.7437 18 10C18 6.29635 15.4832 3.18052 12.0666 2.26949C12.1553 2.8447 11.8351 3.16489 11.5625 3.4375C11.25 3.75 11 4 11.5 4.5C11.9187 4.91868 11.5937 5.79127 11.2987 6.58337C11.1747 6.91637 11.0559 7.23516 11 7.5C10.8712 8.10982 10.2362 9.26376 10 9.5C9.86812 9.63189 9.63188 9.79855 9.34634 10C8.5493 10.5623 7.36812 11.3956 7 12.5C5.43838 11.7192 5.49561 9.81374 5.52179 8.94201C5.52914 8.6973 5.53404 8.53405 5.5 8.5C4.89445 7.89445 4.83894 7.47225 4.77833 7.01134C4.73886 6.7111 4.69722 6.39445 4.5 6C4.15869 5.31737 4.05036 5.10072 4.01598 4.87292C4.00798 4.81992 4.00399 4.76631 4.00199 4.70609ZM10 0C4.47715 0 0 4.47715 0 10C0 15.5228 4.47715 20 10 20C15.5228 20 20 15.5228 20 10C20 4.47715 15.5228 0 10 0Z" fill="#7C7B7B"/>
</svg>
