<svg width="38" height="28" viewBox="0 0 38 28" fill="none" xmlns="http://www.w3.org/2000/svg">
<path d="M21.1459 18.0673L24.6794 14.5338C25.7379 13.4753 27.4727 13.4752 28.5313 14.5335L21.1459 18.0673ZM21.1459 18.0673L16.8521 13.7344L16.8516 13.7339C15.793 12.6753 14.058 12.6753 12.9994 13.7339L6.57549 20.1578V2.70996H35.2755M21.1459 18.0673L35.2755 2.70996M35.2756 6.70517C34.7008 6.41066 34.0384 6.24994 33.3455 6.24994C30.9036 6.24994 28.8755 8.23612 28.8755 10.7199C28.8755 13.2038 30.9036 15.1899 33.3455 15.1899C34.0384 15.1899 34.7007 15.0292 35.2756 14.7347V21.2393L28.5316 14.5338L35.2756 6.70517ZM35.2756 6.70517L35.2755 2.70996M35.2756 6.70517L35.2755 2.70996M4.7552 2.40014V4.18117L2.29383 4.37057L2.29383 4.37051L2.28963 4.37095C1.45533 4.45885 0.787764 5.20508 0.875831 6.05405L2.4754 25.7705C2.52111 26.5753 3.23267 27.1903 4.0252 27.1903H4.14518V27.1908L4.15713 27.1899L26.6771 25.3897L26.6771 25.3897L26.6801 25.3894L27.4774 25.3095L27.4801 25.3093L33.3175 24.8296L33.3175 24.8297L33.3218 24.8292C33.7118 24.786 34.1096 24.612 34.3791 24.2979L34.3792 24.298L34.3825 24.2939C34.5342 24.1041 34.6196 23.9148 34.6924 23.7102H35.5854H35.5887C35.6464 23.7102 35.7121 23.7102 35.7739 23.7046C35.8302 23.6995 35.8944 23.6889 35.9541 23.663C36.3535 23.5689 36.6567 23.3026 36.8676 23.0076L36.868 23.0079L36.8742 22.9975C37.0089 22.7729 37.0956 22.4662 37.0956 22.1603L37.0953 2.40413C37.1334 1.63856 36.5575 0.990105 35.828 0.870259L35.8391 0.85H35.5853H6.30534C5.46243 0.85 4.7552 1.55722 4.7552 2.40014ZM24.9725 23.7102L4.2446 25.3981L4.17501 24.3897L4.17476 24.3869L4.05488 23.0281L4.05478 23.0269L2.70687 6.21676L4.71543 6.04356V22.1601C4.71543 22.5596 4.89063 22.9551 5.15542 23.2221C5.4292 23.5386 5.87217 23.7102 6.30547 23.7102H24.9725ZM15.8791 14.6661L23.1031 21.89H6.70748L13.9314 14.6661C14.4727 14.1248 15.3379 14.1248 15.8791 14.6661L15.9852 14.56L15.8791 14.6661ZM25.0077 21.8901L22.1178 19.0001L25.6518 15.4661C25.9026 15.2153 26.2638 15.0701 26.6258 15.0701C26.9878 15.0701 27.3489 15.2153 27.5998 15.4661L34.0234 21.8901H25.0077ZM35.2756 13.1701C34.7503 13.6001 34.0845 13.8501 33.3455 13.8501C31.6284 13.8501 30.2153 12.4374 30.2153 10.72C30.2153 9.0029 31.6281 7.58986 33.3455 7.58986C34.0845 7.58986 34.7503 7.83993 35.2756 8.26994V13.1701Z" fill="#1A1941" stroke="#1A1941" stroke-width="0.3"/>
</svg>
