<svg width="14" height="14" viewBox="0 0 14 14" fill="none" xmlns="http://www.w3.org/2000/svg">
<path d="M9.25012 10.8996C9.25012 11.4566 9.01307 11.9907 8.59112 12.3845C8.16917 12.7784 7.59689 12.9996 7.00016 12.9996C6.40343 12.9996 5.83115 12.7784 5.4092 12.3845C4.98725 11.9907 4.7502 11.4566 4.7502 10.8996M7.5409 1.10172L6.44142 1.09962C3.93346 1.09402 1.75625 2.99592 1.739 5.29962V7.95262C1.739 8.50562 1.664 9.04532 1.34076 9.50522L1.12551 9.81182C0.797769 10.2766 1.15026 10.8996 1.739 10.8996H12.2613C12.8501 10.8996 13.2018 10.2766 12.8748 9.81182L12.6596 9.50522C12.3371 9.04532 12.2613 8.50492 12.2613 7.95192V5.30032C12.2313 2.99592 10.0489 1.10732 7.5409 1.10172V1.10172Z" stroke="#8B8B8B" stroke-width="1.5" stroke-linecap="round" stroke-linejoin="round"/>
</svg>
